{"glyphs":{"0":{"ha":625,"x_min":0,"x_max":0,"o":"m 424 185 b 454 406 446 253 453 353 b 456 451 456 418 456 435 b 428 690 456 521 450 618 b 315 811 404 774 369 811 b 199 678 265 813 225 768 b 168 431 174 599 168 496 l 168 407 b 197 185 169 354 174 258 b 317 57 224 99 258 56 b 424 185 358 56 399 97 z m 129 164 b 97 403 103 257 99 351 l 97 431 b 131 699 97 499 103 603 b 315 882 156 786 208 879 b 496 711 419 879 474 792 b 526 451 522 621 526 522 b 525 406 526 436 526 421 b 492 164 525 351 518 254 b 317 -14 467 82 418 -11 b 129 164 207 -14 153 81 z "},"1":{"ha":625,"x_min":0,"x_max":0,"o":"m 404 747 b 203 600 347 707 261 643 b 149 610 185 592 160 593 b 157 664 135 628 138 650 l 421 856 b 461 858 432 864 449 864 b 483 824 474 853 481 838 l 485 40 b 446 0 485 18 467 0 b 407 39 424 0 407 17 z "},"2":{"ha":625,"x_min":0,"x_max":0,"o":"m 156 0 b 129 11 147 0 136 4 b 106 83 121 18 104 43 b 231 369 106 139 135 228 b 319 478 258 406 290 442 l 319 476 b 442 672 383 551 442 621 l 442 679 b 333 792 440 724 413 792 l 326 792 b 190 678 219 789 194 696 b 144 643 183 656 163 644 b 113 688 124 649 108 669 b 321 869 113 692 156 849 b 333 871 328 869 331 871 b 519 681 467 868 517 750 b 375 424 513 575 442 493 b 296 325 347 390 318 360 l 296 326 b 182 78 210 200 185 117 l 481 76 b 519 38 503 76 519 58 b 479 -1 519 22 511 3 z "},"3":{"ha":625,"x_min":0,"x_max":0,"o":"m 104 -94 b 129 -46 99 -75 111 -51 b 136 -43 129 -46 132 -46 l 135 -43 b 446 296 174 -31 446 67 l 446 308 b 324 472 438 458 383 467 b 311 474 319 472 315 474 b 254 467 282 474 254 467 b 211 482 238 460 221 468 b 213 528 203 494 203 515 l 311 660 b 401 793 336 696 379 761 l 325 793 b 165 792 267 793 192 792 b 125 831 146 793 125 811 b 164 871 125 853 144 868 b 325 872 164 871 247 872 b 460 868 383 872 433 872 b 496 843 471 868 489 858 b 500 826 500 836 500 831 b 474 764 496 796 488 783 b 458 739 469 757 464 749 b 393 642 440 710 417 676 b 383 629 390 639 388 632 b 328 550 369 610 342 569 b 449 504 371 544 418 532 b 522 308 494 467 524 400 l 522 296 b 158 -118 501 4 207 -103 b 154 -119 157 -118 156 -119 b 149 -121 151 -119 151 -121 l 140 -121 b 104 -93 125 -121 110 -110 z "},"4":{"ha":625,"x_min":0,"x_max":0,"o":"m 363 257 l 153 257 b 118 286 136 257 121 271 b 117 294 117 289 117 292 b 176 581 117 313 119 410 b 207 847 203 658 207 800 l 207 864 b 243 901 207 883 222 899 b 278 865 263 901 278 885 l 278 847 b 244 557 278 796 276 658 b 192 329 214 465 199 383 l 363 329 l 363 468 b 399 503 363 488 378 503 b 433 468 418 503 433 488 l 433 329 l 472 329 b 508 293 493 329 508 313 b 472 257 508 274 493 257 l 433 257 l 433 14 b 399 -21 433 -6 418 -21 b 363 14 378 -21 363 -6 z "},"5":{"ha":625,"x_min":0,"x_max":0,"o":"m 115 -106 b 136 -53 106 -85 115 -61 l 149 -47 b 293 46 172 -35 233 -3 b 447 301 372 110 446 203 l 447 307 b 304 465 440 453 390 454 b 203 451 268 465 229 458 b 171 442 196 451 183 446 l 172 443 b 153 438 168 442 158 439 b 149 436 150 438 151 436 l 135 436 b 128 438 131 436 129 438 b 128 439 128 438 129 438 b 103 468 119 440 107 453 b 101 472 101 469 101 471 b 103 485 101 478 103 482 l 103 508 b 104 535 103 517 104 525 b 106 658 104 569 104 614 l 106 835 b 146 874 107 857 122 874 l 488 871 b 525 832 508 871 525 854 b 486 793 524 811 508 793 l 183 794 b 182 663 182 764 182 704 b 181 525 182 621 181 558 b 303 542 221 535 265 542 b 453 494 351 542 407 532 b 525 304 500 456 524 390 b 181 -118 513 75 244 -89 l 182 -118 l 167 -126 b 151 -129 161 -128 157 -129 b 115 -106 135 -129 121 -119 z "},"6":{"ha":625,"x_min":0,"x_max":0,"o":"m 182 260 b 306 61 194 96 263 64 l 313 61 b 415 124 368 63 392 85 b 446 253 436 158 446 211 b 332 482 436 464 371 478 b 317 485 329 482 322 482 b 239 464 286 486 258 475 b 182 356 213 447 182 407 b 179 324 182 350 181 328 b 181 292 181 313 181 301 b 182 261 181 282 182 272 z m 306 -10 b 111 256 211 -8 117 85 b 108 339 110 285 108 311 b 376 944 106 840 361 943 b 419 922 396 951 414 940 b 397 881 425 904 417 886 b 292 789 371 863 332 846 b 185 497 254 738 210 650 b 314 549 229 528 278 546 b 436 504 338 549 390 544 b 517 253 485 460 517 382 b 313 -10 515 161 483 -6 z "},"7":{"ha":625,"x_min":0,"x_max":0,"o":"m 226 -32 b 224 31 225 -22 224 -1 b 358 493 224 124 242 303 b 446 793 435 618 446 732 l 194 794 l 178 682 b 133 649 175 661 156 646 b 103 693 114 651 100 672 b 121 839 108 742 115 790 b 160 872 124 858 139 872 l 479 872 b 518 842 499 872 514 860 b 522 779 519 829 522 807 b 422 451 522 711 507 589 b 301 31 317 278 301 113 b 304 -26 301 -1 304 -21 b 272 -68 304 -44 292 -65 l 265 -68 b 226 -32 238 -67 226 -47 z "},"8":{"ha":625,"x_min":0,"x_max":0,"o":"m 315 518 b 432 651 403 521 429 582 b 408 760 432 689 424 732 b 322 810 386 792 365 810 b 207 672 229 810 210 717 b 229 571 207 647 213 603 b 315 518 244 547 261 517 z m 322 435 b 164 250 224 443 165 347 l 164 243 b 307 60 168 146 226 57 l 314 60 b 458 238 428 65 463 163 l 458 246 b 322 435 463 364 400 433 z m 94 239 b 93 250 93 247 93 249 b 215 478 93 335 135 424 b 135 672 149 540 135 629 b 315 881 135 724 164 871 l 321 882 b 504 651 464 878 504 738 b 419 478 504 597 479 529 b 529 246 497 431 529 333 l 529 239 b 315 -11 532 146 486 -7 l 307 -11 b 94 236 165 -7 97 128 z "},"9":{"ha":625,"x_min":0,"x_max":0,"o":"m 326 793 b 207 724 258 792 233 763 b 178 575 185 685 176 626 b 208 432 176 539 186 478 b 304 358 232 383 260 360 b 406 389 343 360 375 363 b 444 425 428 411 444 425 b 446 453 444 428 446 443 b 447 481 447 464 447 476 l 444 592 b 326 793 439 757 375 786 z m 219 -112 b 228 -58 207 -96 210 -69 b 254 -40 236 -53 246 -46 b 439 331 339 22 408 75 b 308 282 396 303 349 283 l 303 282 b 100 575 136 300 103 490 b 308 871 99 682 135 863 l 317 872 b 522 597 429 871 518 793 b 525 482 524 550 525 515 b 268 -126 531 68 385 -49 b 253 -129 267 -128 260 -129 b 219 -112 240 -129 228 -124 z "}," ":{"ha":625,"x_min":0,"x_max":0,"o":""},"!":{"ha":625,"x_min":0,"x_max":0,"o":"m 388 78 b 307 -3 388 33 351 -3 b 228 78 264 -3 228 33 b 307 157 228 121 264 157 b 388 78 351 157 388 121 z m 269 968 b 308 1008 269 989 288 1008 b 347 968 329 1008 347 989 l 347 311 b 308 274 347 290 329 274 b 269 311 288 274 269 290 z "},"\"":{"ha":625,"x_min":0,"x_max":0,"o":"m 179 833 b 218 874 179 856 197 874 b 257 833 239 874 257 856 l 257 647 b 218 610 257 626 239 610 b 179 647 197 610 179 626 z m 378 833 b 417 874 378 856 396 874 b 456 833 438 874 456 856 l 456 647 b 417 610 456 626 438 610 b 378 647 396 610 378 626 z "},"#":{"ha":625,"x_min":0,"x_max":0,"o":"m 396 343 b 417 478 401 386 411 433 b 426 515 419 486 422 497 b 428 529 426 517 428 528 b 375 525 408 526 389 525 l 253 525 l 231 390 b 222 356 229 381 226 369 b 221 338 222 354 221 342 b 272 343 239 339 260 343 z m 450 286 b 414 57 439 213 425 129 b 376 -7 404 8 399 -7 b 346 29 356 -7 346 4 b 350 69 346 35 347 53 b 379 239 358 124 369 183 b 383 261 381 244 382 253 b 389 290 385 267 388 283 b 336 286 372 288 351 286 l 214 286 b 174 57 201 213 188 129 b 163 8 169 33 168 21 b 139 -7 158 -1 150 -6 b 107 28 117 -8 107 3 b 113 69 107 35 108 50 l 142 240 b 153 292 143 250 149 274 b 122 286 142 289 129 286 l 106 286 b 58 289 83 286 65 288 b 33 315 42 290 33 300 b 56 339 33 329 40 338 b 101 343 67 342 83 343 l 157 343 l 181 479 b 183 492 181 482 182 486 b 193 532 185 499 190 521 b 163 525 182 528 168 525 l 144 525 b 94 529 124 525 107 526 b 72 556 78 532 71 542 b 93 579 74 569 83 578 b 140 582 103 581 119 582 l 197 582 b 235 811 208 656 224 739 b 275 874 242 847 256 874 b 303 839 294 874 303 863 b 297 799 303 832 301 818 b 268 626 289 743 278 683 b 256 578 267 619 264 604 b 313 582 275 579 297 582 l 433 582 b 472 811 444 656 460 739 b 483 856 478 838 482 851 b 511 874 488 868 497 874 b 542 843 531 874 540 863 b 540 835 542 843 540 840 b 535 799 539 828 538 815 l 507 626 b 493 576 506 617 500 596 b 524 582 504 579 517 582 l 539 582 b 589 579 560 582 581 581 b 611 553 599 575 611 564 b 590 528 611 542 601 531 b 542 525 582 526 564 525 l 490 525 b 469 390 485 483 475 432 b 454 338 467 379 461 361 b 496 343 469 339 485 343 l 526 343 b 576 313 560 343 576 332 b 529 286 576 294 560 286 z "},"$":{"ha":625,"x_min":0,"x_max":0,"o":"m 353 357 b 350 46 358 297 353 85 b 497 183 451 69 497 114 b 403 321 497 222 465 267 l 390 331 z m 294 801 b 139 664 186 778 139 732 b 167 581 139 633 150 604 b 290 478 183 557 219 525 b 292 631 288 514 292 582 z m 292 399 b 208 458 265 418 233 440 b 75 656 122 522 75 590 b 292 868 75 764 161 846 l 292 953 b 322 989 292 976 303 989 b 356 953 344 989 356 976 l 356 868 b 544 771 460 850 544 810 b 522 740 544 756 533 740 b 478 758 513 740 499 746 b 351 804 444 779 407 793 l 356 435 b 444 375 381 418 417 393 b 564 192 529 314 564 264 b 356 -17 564 85 488 7 l 356 -111 b 322 -149 356 -136 344 -149 b 292 -111 303 -149 292 -136 l 292 -22 b 124 22 228 -18 172 -1 b 58 90 79 47 58 69 b 82 118 58 106 69 118 b 174 82 93 118 124 106 b 293 44 213 61 247 50 z "},"%":{"ha":625,"x_min":0,"x_max":0,"o":"m 150 736 b 60 638 96 736 60 696 b 150 538 60 578 96 538 b 238 638 201 538 238 578 b 150 736 238 696 201 736 z m 486 325 b 394 226 431 325 394 286 b 486 126 394 168 431 126 b 575 226 535 126 575 168 b 486 325 575 286 535 325 z m 492 782 b 514 800 497 794 506 800 b 542 767 528 800 542 785 b 536 747 542 760 539 754 l 536 749 l 139 79 b 115 64 133 69 126 64 b 89 96 97 64 89 78 b 94 114 89 101 92 108 z m 486 390 b 628 226 568 390 628 318 b 486 65 628 133 568 65 b 340 226 404 65 340 133 b 486 390 340 318 404 390 z m 150 800 b 294 638 232 800 294 728 b 150 474 294 544 232 474 b 7 638 68 474 7 544 b 150 800 7 728 68 800 z "},"&":{"ha":625,"x_min":0,"x_max":0,"o":"m 215 538 b 250 483 222 526 235 515 b 299 531 261 496 285 515 l 346 582 b 390 681 376 613 390 644 b 271 804 390 746 335 804 b 151 681 207 804 151 746 b 175 607 151 660 161 632 z m 279 326 b 242 388 272 338 253 367 b 194 333 224 358 208 346 b 154 286 182 318 168 301 l 154 288 b 110 182 124 251 110 217 b 222 63 110 118 163 63 b 331 117 250 63 288 83 b 382 164 350 133 369 149 z m 210 436 l 140 546 b 93 682 110 596 93 642 b 144 813 93 733 111 776 b 271 868 181 849 222 868 b 397 814 321 868 363 849 b 449 682 432 778 449 735 b 389 533 449 628 428 578 l 289 426 b 426 201 414 226 419 215 b 446 217 428 203 443 214 l 461 232 l 529 289 b 581 318 554 308 569 318 b 607 289 594 318 607 304 b 571 243 607 274 607 274 l 463 146 b 517 61 478 124 501 86 b 529 28 524 50 529 36 b 500 0 529 10 519 0 b 469 22 489 0 478 10 b 438 69 460 39 447 54 l 439 68 l 435 78 b 418 117 433 81 418 117 b 386 88 406 104 392 92 b 344 51 368 69 356 58 b 222 -1 301 15 261 -1 b 101 54 178 -1 138 17 b 50 186 68 93 50 138 b 113 326 50 232 71 279 z "},"'":{"ha":625,"x_min":0,"x_max":0,"o":"m 263 833 b 301 874 263 856 281 874 b 340 833 322 874 340 856 l 340 647 b 301 610 340 626 322 610 b 263 647 281 610 263 626 z "},"(":{"ha":625,"x_min":0,"x_max":0,"o":"m 378 -62 b 144 482 210 93 144 294 b 419 1079 146 736 260 969 l 418 1078 b 472 1068 439 1089 461 1086 b 463 1014 485 1050 481 1025 b 221 482 333 929 219 713 b 429 -6 221 311 281 136 b 431 -60 446 -19 446 -44 b 404 -72 424 -68 414 -72 b 378 -62 394 -72 386 -69 z "},")":{"ha":625,"x_min":0,"x_max":0,"o":"m 193 -56 b 194 0 178 -42 181 -15 b 403 488 340 139 403 319 b 161 1019 404 715 292 935 b 151 1072 144 1031 138 1056 b 206 1085 163 1090 186 1097 l 204 1085 b 481 488 367 976 479 740 b 247 -58 481 299 414 99 b 221 -68 240 -65 231 -68 b 194 -56 213 -68 201 -64 z "},"*":{"ha":625,"x_min":0,"x_max":0,"o":"m 553 750 l 342 679 b 478 464 376 613 440 532 b 436 424 469 450 443 436 l 308 636 b 188 421 272 571 225 489 b 146 471 171 443 161 453 l 269 679 b 72 747 210 704 133 722 b 90 801 79 776 83 776 l 286 735 l 286 989 l 339 989 l 339 735 b 535 799 397 756 472 779 z "},"+":{"ha":625,"x_min":0,"x_max":0,"o":"m 342 747 l 343 747 b 347 746 344 747 346 746 z m 361 242 l 363 243 l 361 239 z m 93 447 b 54 486 72 447 54 465 b 93 525 54 507 72 525 l 285 525 l 285 721 b 286 725 285 722 286 724 l 289 731 b 293 736 290 732 293 736 l 300 743 b 319 751 307 749 310 750 l 322 751 b 332 749 325 749 328 749 b 342 747 335 747 338 747 b 347 744 343 746 346 744 l 349 743 b 357 733 353 739 354 739 l 357 735 b 358 731 358 731 358 732 l 363 714 l 363 525 l 539 525 b 576 486 560 525 576 507 b 539 447 576 465 560 447 l 363 447 l 363 251 b 361 244 363 249 361 246 l 361 242 l 358 239 l 358 235 b 353 226 357 232 356 229 l 349 222 b 344 218 347 221 346 218 b 324 213 336 214 329 213 l 315 213 l 313 213 l 314 213 b 301 221 307 215 303 218 l 288 233 b 285 246 286 236 285 244 l 285 447 z "},",":{"ha":625,"x_min":0,"x_max":0,"o":"m 293 -226 b 281 -176 275 -215 271 -193 b 285 -165 281 -176 282 -172 l 285 -167 b 340 0 297 -146 325 -85 l 308 0 b 211 99 256 0 211 44 b 308 197 211 153 256 197 b 403 129 354 197 394 167 b 410 106 404 125 408 110 l 408 107 b 414 44 413 86 414 64 b 344 -211 413 -83 357 -189 l 346 -210 b 311 -232 336 -225 324 -232 b 292 -226 304 -232 299 -229 z "},"-":{"ha":625,"x_min":0,"x_max":0,"o":"m 122 340 b 96 376 108 340 96 361 b 122 408 96 389 108 408 l 503 408 b 528 376 517 408 528 389 b 503 340 528 361 517 340 z "},".":{"ha":625,"x_min":0,"x_max":0,"o":"m 410 97 b 311 -1 410 43 365 -1 b 214 97 258 -1 214 43 b 311 196 214 151 258 196 b 410 97 365 196 410 151 z "},"/":{"ha":625,"x_min":0,"x_max":0,"o":"m 100 -106 b 99 -103 100 -106 100 -104 l 97 -101 b 93 -72 93 -92 90 -82 l 90 -75 b 94 -65 93 -69 94 -67 b 96 -60 96 -61 94 -62 b 110 -18 103 -43 108 -29 b 151 110 119 13 133 57 b 275 500 183 217 229 358 b 456 1067 365 785 456 1067 l 454 1067 b 504 1090 461 1086 483 1099 b 528 1043 524 1085 536 1064 b 367 535 528 1043 451 796 b 169 -83 276 250 179 -50 b 154 -111 167 -96 163 -107 b 132 -118 149 -115 142 -118 b 104 -108 121 -119 111 -115 z "},"<":{"ha":625,"x_min":0,"x_max":0,"o":"m 160 428 b 253 374 181 415 231 386 l 251 374 b 282 357 258 369 272 361 l 424 271 b 460 249 447 256 461 247 b 478 217 472 239 478 229 b 444 189 478 201 463 189 b 386 214 435 189 414 197 l 386 213 l 169 350 b 131 383 150 363 138 374 b 118 428 121 392 118 407 b 129 471 118 444 122 460 b 169 501 136 478 153 492 b 386 638 242 546 314 593 l 386 636 b 444 664 414 653 436 664 b 478 633 463 664 478 650 b 460 603 478 624 472 614 b 424 582 461 604 447 596 l 282 494 z "},"=":{"ha":625,"x_min":0,"x_max":0,"o":"m 128 536 b 88 575 107 536 88 553 b 128 614 88 596 107 614 l 497 614 b 536 575 518 614 536 596 b 497 536 536 553 518 536 z m 128 319 b 88 357 107 319 88 336 b 128 396 88 379 107 396 l 497 396 b 536 357 518 396 536 379 b 497 319 536 336 518 319 z "},">":{"ha":625,"x_min":0,"x_max":0,"o":"m 313 357 b 171 271 267 329 217 297 b 135 249 147 256 133 247 b 117 217 122 239 117 229 b 150 189 117 201 132 189 b 208 214 160 189 181 197 l 208 213 b 425 350 281 258 353 304 b 464 383 444 363 457 374 b 476 428 474 392 476 407 b 465 471 476 444 472 460 b 425 501 458 478 440 492 b 208 638 354 546 279 593 l 208 636 b 150 664 181 653 158 664 b 117 633 132 664 117 650 b 135 603 117 624 122 614 b 171 582 133 604 147 596 l 313 494 b 431 428 346 475 401 443 b 313 357 343 376 319 361 z "},"?":{"ha":625,"x_min":0,"x_max":0,"o":"m 386 78 b 307 -3 386 33 351 -3 b 228 78 264 -3 228 33 b 307 157 228 121 264 157 b 386 78 351 157 386 121 z m 347 299 b 317 264 347 276 336 264 b 286 299 297 264 286 276 l 286 417 b 301 501 286 454 293 483 b 392 582 308 517 338 543 b 457 686 435 615 457 649 b 310 806 457 757 394 806 b 182 768 272 806 231 793 l 183 768 b 138 753 165 760 150 753 b 114 783 124 753 114 768 b 154 826 114 799 126 814 b 313 869 210 856 261 869 b 517 686 433 869 517 793 b 458 556 517 638 499 593 b 408 518 440 540 411 521 b 383 500 401 513 381 497 b 347 415 360 483 347 456 z "},"@":{"ha":625,"x_min":0,"x_max":0,"o":"m 399 239 b 286 165 369 183 335 165 b 158 333 214 165 158 235 b 204 485 158 393 174 444 b 319 547 236 526 274 546 b 426 482 363 549 403 528 b 453 533 432 517 440 532 b 464 468 489 536 469 503 l 436 310 b 432 267 435 297 433 282 b 471 214 431 235 447 214 b 547 274 500 214 526 233 b 579 417 568 314 579 363 b 507 606 579 493 556 557 b 325 681 460 656 399 681 b 131 589 249 681 185 650 b 50 367 76 529 50 454 b 129 142 50 276 76 201 b 326 53 182 82 247 53 b 439 69 356 53 393 58 l 450 72 b 482 82 458 75 469 78 b 522 93 492 86 511 93 b 539 76 533 93 539 88 b 472 28 539 58 517 43 b 324 7 429 14 379 7 b 97 111 233 7 158 42 b 6 368 36 181 6 267 b 97 622 6 468 36 553 b 324 726 160 692 235 726 b 538 639 411 726 482 697 b 622 415 594 581 622 506 b 575 243 622 350 607 293 b 468 168 543 193 508 168 b 399 240 431 168 399 185 z m 324 499 b 207 338 258 499 207 425 b 294 214 207 265 243 214 b 406 389 357 214 406 289 b 324 499 406 457 374 499 z "},"A":{"ha":625,"x_min":0,"x_max":0,"o":"m 221 283 l 400 283 l 308 781 z m 251 844 b 290 878 257 864 272 879 l 326 878 b 363 843 344 876 360 863 b 526 43 414 590 475 296 b 497 -1 529 24 517 1 b 490 -3 494 -3 493 -3 b 453 28 471 -3 456 8 l 415 207 l 206 207 l 172 26 b 126 -1 169 6 149 -6 b 100 43 107 1 94 21 z "},"B":{"ha":625,"x_min":0,"x_max":0,"o":"m 211 506 b 342 532 304 501 326 521 b 392 646 365 551 392 581 b 390 676 392 653 392 668 b 260 786 383 746 301 786 l 211 786 z m 211 79 b 271 81 236 79 263 79 b 411 244 325 90 406 99 b 340 400 410 343 374 376 b 268 426 303 425 268 426 b 256 429 264 426 260 428 l 211 428 z m 146 13 b 133 39 136 19 133 29 l 133 825 b 146 853 133 835 138 844 b 172 864 153 860 163 864 l 260 864 b 467 685 335 864 449 813 b 468 646 468 671 468 658 b 386 468 468 564 428 506 b 489 249 439 425 490 351 l 489 243 b 275 1 490 60 346 1 b 172 0 247 0 172 0 b 146 11 163 0 153 4 z "},"C":{"ha":625,"x_min":0,"x_max":0,"o":"m 317 -14 b 179 57 290 -12 224 -3 b 100 419 135 124 106 232 b 311 881 90 758 201 872 b 338 882 322 882 329 882 b 501 779 451 881 499 786 b 483 726 510 763 501 736 b 435 744 464 717 444 724 b 428 751 435 744 431 747 l 429 750 b 406 782 425 758 418 769 b 335 808 389 794 368 808 l 319 808 b 174 460 251 793 182 771 b 175 421 174 450 174 433 b 243 106 179 247 217 140 b 313 60 267 76 290 65 b 321 58 317 60 318 60 b 447 178 411 51 447 178 b 501 207 453 200 476 215 b 522 158 518 204 528 182 b 332 -14 522 154 479 -1 z "},"D":{"ha":625,"x_min":0,"x_max":0,"o":"m 207 79 b 351 132 251 75 319 96 b 415 342 403 193 413 281 b 418 424 417 374 418 399 b 413 558 418 481 415 519 b 350 729 408 606 396 681 l 351 729 b 207 796 319 767 257 790 z m 161 4 b 128 42 143 7 128 22 l 128 833 b 163 872 128 853 143 869 b 193 874 169 872 178 874 b 408 781 236 874 340 856 b 490 561 474 715 486 614 b 496 424 493 521 496 483 b 493 338 496 396 496 368 b 410 82 489 276 479 167 b 210 0 349 13 261 0 b 164 3 182 0 165 1 z "},"E":{"ha":625,"x_min":0,"x_max":0,"o":"m 233 421 l 233 75 b 474 72 307 75 397 72 b 513 35 493 71 513 57 b 475 -1 511 14 494 -1 l 194 0 b 158 38 175 0 158 17 l 158 833 b 169 861 158 844 161 854 b 196 872 176 868 185 872 l 474 871 b 510 831 493 871 510 853 b 472 794 510 811 492 794 l 233 796 l 233 494 l 379 494 b 415 456 399 493 415 478 b 378 421 415 436 397 421 z "},"F":{"ha":625,"x_min":0,"x_max":0,"o":"m 211 407 l 211 42 b 171 -1 211 17 194 -1 b 131 42 150 -1 131 17 l 131 829 b 171 871 131 853 150 871 l 453 872 b 494 832 475 874 494 854 b 454 789 494 808 476 789 l 211 788 l 211 490 l 354 490 b 394 447 375 490 394 471 b 353 407 394 428 382 407 z "},"G":{"ha":625,"x_min":0,"x_max":0,"o":"m 474 1 b 431 36 458 1 442 15 b 328 1 399 15 364 1 l 318 1 b 160 110 254 1 192 43 b 110 417 125 182 110 279 l 110 428 b 324 865 111 708 196 854 l 335 865 b 507 739 479 865 507 744 b 474 693 510 719 494 699 b 428 729 456 693 431 707 b 414 757 425 736 421 747 l 415 756 b 339 788 403 771 389 786 l 329 788 b 186 426 285 788 189 719 l 186 417 b 319 81 189 136 258 81 l 325 81 b 418 124 356 81 396 81 b 439 254 438 163 440 203 b 433 368 439 278 436 349 l 347 368 b 308 406 325 368 308 385 b 349 444 310 428 325 444 l 475 444 b 515 403 499 444 515 426 l 513 40 b 474 1 513 18 496 1 z "},"H":{"ha":625,"x_min":0,"x_max":0,"o":"m 453 -4 b 413 38 429 -4 413 14 l 413 424 l 210 424 l 210 38 b 169 -4 210 14 192 -4 b 128 38 147 -4 128 14 l 128 833 b 169 875 128 857 147 875 b 210 833 192 875 210 857 l 210 492 l 413 492 l 414 833 b 454 875 414 857 432 875 b 496 833 476 875 496 857 l 493 38 b 453 -4 493 14 475 -4 z "},"I":{"ha":625,"x_min":0,"x_max":0,"o":"m 179 1 b 142 36 158 1 142 14 b 179 71 142 56 158 71 l 271 71 l 274 801 l 179 801 b 142 838 158 801 142 817 b 179 871 142 858 158 871 l 444 871 b 483 838 465 871 483 858 b 444 801 483 817 465 801 l 351 801 l 350 71 l 443 71 b 483 36 464 71 483 56 b 443 1 483 14 464 1 z "},"J":{"ha":625,"x_min":0,"x_max":0,"o":"m 313 -8 b 107 179 129 -8 107 175 b 140 228 104 203 119 225 b 188 189 165 231 185 213 b 207 135 188 189 192 160 b 314 67 222 107 251 65 b 438 185 425 69 436 156 l 438 831 b 478 875 438 856 456 875 b 519 831 501 875 519 856 l 519 186 b 313 -8 519 129 492 -8 z "},"K":{"ha":625,"x_min":0,"x_max":0,"o":"m 251 433 b 207 360 224 392 217 375 l 207 40 b 167 -1 207 17 188 -1 b 126 40 146 -1 126 17 l 126 832 b 167 874 126 856 146 874 b 207 832 188 874 207 856 l 207 485 l 404 849 b 458 865 414 869 439 876 b 472 807 476 856 486 828 b 443 753 472 807 460 785 b 304 501 410 693 353 589 b 494 51 364 356 432 197 b 471 -3 501 31 493 6 b 454 -6 467 -4 461 -6 b 417 19 442 -6 424 6 z "},"L":{"ha":625,"x_min":0,"x_max":0,"o":"m 171 0 b 143 11 160 0 150 4 l 144 11 b 131 40 135 19 131 31 l 131 835 b 171 875 131 857 150 875 b 211 835 194 875 211 857 l 211 83 l 453 83 b 494 40 475 83 494 63 b 453 0 494 18 475 0 z "},"M":{"ha":625,"x_min":0,"x_max":0,"o":"m 494 721 l 347 310 b 310 285 342 294 326 285 b 274 311 294 285 278 296 l 275 311 l 143 721 b 128 42 136 533 133 229 b 89 -1 126 18 111 -1 b 53 44 68 0 51 18 b 75 833 60 307 68 571 b 115 875 76 857 92 875 l 140 875 b 176 847 157 875 172 864 l 175 847 l 311 422 l 461 846 b 496 874 467 864 481 874 l 522 874 b 561 831 544 874 561 854 l 574 42 b 536 -3 574 17 557 -3 b 496 40 513 -3 497 15 z "},"N":{"ha":625,"x_min":0,"x_max":0,"o":"m 453 1 b 425 24 439 3 429 13 l 190 675 l 188 38 b 151 1 188 17 171 1 b 117 38 132 1 117 17 l 118 828 b 146 864 118 843 132 858 l 161 865 b 200 842 176 868 194 860 l 200 843 l 435 196 l 432 828 b 468 864 432 847 449 864 b 504 828 489 864 504 847 l 507 35 b 494 8 507 24 501 14 b 471 -1 488 1 479 -1 b 465 0 469 -1 468 -1 z "},"O":{"ha":625,"x_min":0,"x_max":0,"o":"m 314 800 b 208 707 269 799 238 775 b 172 442 183 644 172 550 l 172 428 b 308 71 176 142 249 71 l 315 71 b 413 157 354 71 382 90 b 454 417 440 215 454 308 l 454 426 b 418 701 454 533 446 635 b 314 800 392 771 360 801 z m 307 -12 b 90 425 164 1 90 161 l 90 438 b 135 738 90 556 104 658 b 304 881 163 814 221 876 b 311 881 308 882 310 881 b 535 422 488 886 528 646 l 535 417 b 486 121 535 301 519 200 b 315 -12 456 47 397 -12 z "},"P":{"ha":625,"x_min":0,"x_max":0,"o":"m 210 422 b 415 613 264 426 415 435 b 210 792 413 768 299 788 z m 129 828 b 163 869 129 847 140 865 b 214 872 171 869 188 872 b 494 621 292 874 490 840 b 381 388 496 499 442 422 b 211 346 318 350 246 346 l 210 38 b 169 -4 210 14 193 -4 b 129 38 149 -4 129 14 z "},"Q":{"ha":625,"x_min":0,"x_max":0,"o":"m 311 796 b 211 704 267 792 238 769 b 168 442 185 644 168 550 l 168 428 b 325 76 171 178 240 86 b 292 136 296 124 296 128 l 285 144 b 311 197 276 165 290 190 b 363 172 332 204 357 193 b 389 106 363 172 381 125 b 411 160 406 149 408 153 b 454 418 438 222 456 311 l 454 428 b 418 700 454 536 447 636 b 311 796 394 761 356 800 z m 426 -68 b 375 -15 397 -42 389 -35 b 365 1 374 -12 367 -1 b 340 -1 351 1 346 0 l 342 -1 b 314 -6 331 -3 300 -6 l 306 -6 b 86 424 160 8 86 165 l 86 442 b 133 735 86 556 103 658 b 306 876 163 811 221 872 b 538 424 492 882 536 668 l 538 418 b 488 126 538 306 519 201 b 425 38 474 99 451 63 b 458 3 436 21 453 10 b 488 -61 483 -18 494 -39 l 488 -60 b 457 -82 481 -72 469 -82 b 425 -68 449 -82 438 -78 z "},"R":{"ha":625,"x_min":0,"x_max":0,"o":"m 208 436 b 414 629 286 440 414 458 b 211 800 411 778 303 804 z m 282 372 b 208 364 261 368 231 364 l 208 32 b 171 -7 208 10 192 -7 b 133 32 151 -7 133 10 l 133 831 b 164 869 133 849 147 867 b 225 874 175 871 199 874 b 489 636 306 876 485 842 b 374 400 490 514 438 436 l 375 400 l 347 386 b 483 46 390 278 440 154 l 483 47 b 456 -7 490 28 478 1 l 447 -7 b 413 14 431 -7 417 0 z "},"S":{"ha":625,"x_min":0,"x_max":0,"o":"m 313 -4 b 124 117 221 0 157 65 b 138 169 115 136 121 160 b 189 156 156 181 179 175 b 313 72 210 119 265 71 b 393 106 336 72 363 82 b 428 197 410 119 428 164 b 426 210 428 203 426 207 l 426 217 b 297 419 419 271 356 347 b 264 458 286 431 275 444 b 139 710 211 522 139 604 b 313 875 139 814 221 876 b 482 743 419 875 465 786 b 463 692 492 724 482 700 b 411 713 443 682 419 692 b 313 801 389 761 369 801 b 217 718 249 799 224 767 b 326 504 211 649 274 571 b 360 464 339 490 350 476 b 394 422 369 449 382 436 b 503 232 438 369 486 308 b 506 197 506 218 506 208 b 444 47 506 147 488 89 b 313 -4 403 13 372 -7 z "},"T":{"ha":625,"x_min":0,"x_max":0,"o":"m 271 786 l 160 788 b 117 829 135 788 117 807 b 161 874 119 856 136 874 b 465 872 263 874 364 872 b 508 828 490 871 508 854 b 464 785 508 806 489 785 l 357 785 l 357 40 b 314 -3 357 15 339 -3 b 271 40 292 -3 271 15 z "},"U":{"ha":625,"x_min":0,"x_max":0,"o":"m 307 -11 b 131 201 158 -3 131 101 l 131 831 b 171 872 131 854 150 872 b 211 831 194 872 211 854 l 211 190 b 308 64 214 150 219 64 b 410 167 400 64 407 126 b 411 179 410 172 411 176 l 411 831 b 451 872 411 854 429 872 b 494 831 474 872 494 854 l 494 189 b 493 179 494 186 493 183 b 319 -11 493 96 450 -15 z "},"V":{"ha":625,"x_min":0,"x_max":0,"o":"m 301 -6 b 263 26 285 -6 268 8 b 97 819 211 278 149 568 b 128 868 94 839 108 863 b 175 835 150 872 171 857 l 315 136 l 449 835 b 496 868 453 857 474 872 b 525 819 517 864 532 840 l 367 26 b 328 -6 361 8 344 -6 z "},"W":{"ha":625,"x_min":0,"x_max":0,"o":"m 196 -7 b 160 26 178 -7 163 7 l 51 829 b 79 874 49 850 61 871 b 121 842 100 876 117 861 l 208 194 l 282 499 b 317 528 288 515 303 528 b 351 497 332 528 346 517 l 351 499 l 419 196 l 504 842 b 543 874 507 861 524 876 b 574 829 563 871 576 850 b 467 28 540 575 501 282 b 431 -6 464 8 450 -6 l 424 -6 b 390 22 410 -6 396 8 l 315 353 l 238 21 b 206 -7 232 6 218 -7 z "},"X":{"ha":625,"x_min":0,"x_max":0,"o":"m 128 806 b 143 869 115 835 122 864 b 197 847 165 876 189 868 l 197 849 l 310 542 b 432 850 343 625 397 763 b 485 874 442 868 464 881 b 508 828 504 867 515 844 l 344 436 b 493 50 393 310 444 176 l 493 51 b 468 4 500 32 489 10 b 414 26 446 -3 422 7 l 414 24 l 304 342 b 179 22 271 257 215 113 b 126 0 169 6 147 -7 b 103 47 107 7 97 29 l 267 438 z "},"Y":{"ha":625,"x_min":0,"x_max":0,"o":"m 264 374 b 115 814 215 518 164 669 l 117 814 b 139 871 108 839 119 864 b 194 843 163 878 185 867 l 193 844 l 308 472 b 432 847 344 582 397 738 l 431 846 b 483 874 440 869 463 882 b 508 817 504 865 514 838 l 344 372 l 344 38 b 304 -6 344 13 326 -6 b 264 38 282 -6 264 13 z "},"Z":{"ha":625,"x_min":0,"x_max":0,"o":"m 175 0 b 143 18 163 0 151 7 b 136 56 133 31 132 43 l 394 785 l 204 785 b 165 826 182 785 165 804 b 204 867 165 847 182 867 l 450 867 b 482 849 463 867 475 861 b 489 813 492 838 493 824 l 232 82 l 449 82 b 489 42 469 82 489 63 b 449 0 489 18 469 0 z "},"[":{"ha":625,"x_min":0,"x_max":0,"o":"m 339 -144 b 326 -201 339 -154 336 -174 b 379 -190 350 -194 367 -190 l 406 -190 b 451 -232 436 -190 451 -204 b 406 -274 451 -258 436 -274 l 328 -274 b 256 -187 272 -274 256 -251 l 256 993 b 328 1079 256 1058 272 1079 l 406 1079 b 451 1038 436 1079 451 1065 b 406 996 451 1011 436 996 l 379 996 b 326 1008 367 996 350 1001 b 339 950 336 979 339 961 z "},"\\":{"ha":625,"x_min":0,"x_max":0,"o":"m 522 -106 b 524 -103 522 -106 522 -104 l 522 -104 b 528 -96 522 -100 525 -97 b 529 -71 533 -87 532 -82 l 535 -79 b 526 -61 535 -79 529 -69 l 526 -60 b 513 -18 524 -51 517 -35 b 471 110 503 13 489 57 b 347 500 439 217 393 358 b 168 1057 258 781 169 1057 b 118 1090 160 1082 138 1099 b 93 1043 97 1085 85 1064 b 256 535 93 1043 171 796 b 453 -83 346 250 443 -50 b 468 -111 456 -96 460 -107 b 493 -119 474 -115 481 -118 b 518 -108 501 -118 511 -115 z m 519 -112 b 522 -108 519 -111 522 -110 l 522 -106 z "},"]":{"ha":625,"x_min":0,"x_max":0,"o":"m 367 950 l 367 -144 b 379 -201 367 -154 369 -174 b 326 -190 356 -194 339 -190 l 300 -190 b 254 -232 269 -190 254 -204 b 300 -274 254 -258 269 -274 l 378 -274 b 450 -187 433 -274 450 -251 l 450 993 b 378 1079 450 1058 433 1079 l 300 1079 b 254 1038 269 1079 254 1065 b 300 996 254 1011 269 996 l 326 996 b 379 1008 339 996 356 1001 b 367 950 369 979 367 961 z "},"^":{"ha":625,"x_min":0,"x_max":0,"o":"m 314 922 b 263 835 303 900 275 858 b 247 808 257 828 253 815 b 160 667 218 763 188 713 b 138 629 147 644 138 629 b 107 613 129 621 117 613 b 78 644 90 613 78 626 b 104 703 78 654 86 675 l 103 703 l 239 919 b 272 960 253 939 263 953 b 317 971 281 968 297 971 b 360 961 333 971 350 967 b 392 919 367 954 381 936 b 526 703 435 847 482 775 l 525 703 b 553 644 543 675 553 653 b 522 613 553 626 540 613 b 493 629 513 613 503 618 b 471 667 494 628 485 642 l 383 808 z "},"_":{"ha":625,"x_min":0,"x_max":0,"o":"m 39 -257 b 0 -218 18 -257 0 -240 b 39 -181 0 -197 18 -181 l 588 -181 b 625 -218 608 -181 625 -197 b 588 -257 625 -240 608 -257 z "},"`":{"ha":625,"x_min":0,"x_max":0,"o":"m 418 874 b 388 814 407 854 397 832 b 204 999 322 878 268 933 b 243 1063 217 1021 229 1040 z "},"a":{"ha":625,"x_min":0,"x_max":0,"o":"m 321 279 b 207 164 243 265 210 232 b 292 67 208 81 250 72 l 303 67 b 317 68 307 67 313 68 b 392 97 346 71 369 75 b 417 129 406 111 411 119 l 417 290 b 321 279 353 289 356 285 z m 185 29 b 128 160 151 56 128 101 l 128 167 b 365 354 135 335 294 344 b 414 364 382 357 388 354 b 415 381 414 371 414 378 b 415 479 415 472 415 476 b 324 536 414 501 410 533 b 247 510 285 536 263 524 b 225 486 232 500 225 486 b 172 472 215 468 192 461 b 157 525 154 482 147 506 b 324 614 160 531 210 613 b 467 554 390 614 442 589 b 494 467 490 521 494 485 l 496 21 b 457 -11 497 0 478 -10 b 415 31 440 -11 422 3 b 313 -8 382 13 347 -3 l 294 -8 b 185 29 261 -8 221 0 z "},"b":{"ha":625,"x_min":0,"x_max":0,"o":"m 193 113 b 311 76 217 94 244 75 b 449 299 426 81 447 211 b 303 525 447 426 426 521 b 176 461 246 526 200 492 b 178 131 176 193 178 131 z m 97 789 b 136 832 97 813 113 832 b 175 789 160 832 175 813 l 175 554 b 303 606 217 582 253 603 b 497 497 401 613 469 557 b 526 276 524 424 528 344 b 336 -7 525 197 510 19 l 339 -7 b 311 -8 328 -8 319 -8 b 179 32 263 -8 218 8 b 138 -3 169 11 154 -3 b 99 40 115 -3 99 15 z "},"c":{"ha":625,"x_min":0,"x_max":0,"o":"m 147 115 b 114 313 119 181 114 253 b 143 485 114 353 121 425 b 311 611 167 544 222 607 l 318 611 b 497 475 465 610 497 481 b 468 429 501 454 489 435 b 424 450 447 425 426 435 b 403 496 418 467 411 486 l 403 494 b 318 532 388 514 368 532 b 215 454 261 531 240 506 b 192 313 196 408 192 349 b 218 146 192 258 199 192 b 318 71 243 94 264 72 b 432 161 408 68 428 140 l 431 158 b 433 168 432 163 433 167 b 476 203 438 190 456 206 b 510 160 497 200 513 182 b 318 -7 510 157 489 -4 b 147 115 229 -7 171 53 z "},"d":{"ha":625,"x_min":0,"x_max":0,"o":"m 440 478 b 318 531 411 507 354 532 b 181 300 197 525 181 394 b 314 68 181 197 203 68 b 438 111 389 68 425 101 z m 282 -11 b 99 304 93 13 96 260 b 317 610 99 449 156 611 b 442 558 360 610 403 586 l 443 793 b 481 836 443 817 457 836 b 517 793 504 836 517 817 l 515 35 b 476 -8 515 10 501 -8 b 438 26 464 -8 451 3 b 311 -12 400 3 357 -12 b 282 -11 303 -12 294 -12 z "},"e":{"ha":625,"x_min":0,"x_max":0,"o":"m 426 357 b 403 479 425 390 418 446 b 313 535 383 513 374 533 b 218 449 264 532 236 501 l 218 450 b 200 361 208 426 203 388 z m 297 -3 b 143 138 208 4 161 78 b 119 301 121 204 119 271 b 143 475 121 351 122 415 b 303 607 161 532 213 603 b 475 506 396 611 451 558 b 504 360 501 451 504 394 b 503 329 504 344 503 335 b 464 292 500 307 483 292 l 197 292 b 217 161 199 253 204 201 b 300 75 239 106 263 81 b 413 139 367 67 396 110 l 411 138 l 422 154 b 471 164 431 169 454 175 b 489 117 490 154 497 133 b 315 -3 483 104 435 -3 z "},"f":{"ha":625,"x_min":0,"x_max":0,"o":"m 313 533 l 313 38 b 271 -3 313 14 294 -3 b 232 38 250 -3 232 14 l 232 535 l 168 535 b 128 571 147 538 128 549 b 168 606 129 590 146 606 l 232 604 l 232 708 b 249 789 232 725 231 757 b 371 864 264 826 308 867 b 469 843 401 864 432 857 b 492 789 492 836 501 811 b 439 768 485 769 460 760 b 369 783 407 781 383 783 b 328 764 342 782 339 778 l 329 765 b 324 758 328 764 325 760 b 313 701 314 736 313 711 l 313 603 l 404 603 b 443 569 425 603 443 588 b 404 533 443 549 425 533 z "},"g":{"ha":625,"x_min":0,"x_max":0,"o":"m 429 488 b 399 511 425 492 411 504 b 319 533 379 522 360 533 l 310 533 b 297 529 307 532 300 531 l 299 531 b 196 301 249 515 204 501 b 229 132 196 236 208 174 b 303 68 254 88 278 75 b 429 132 329 63 408 82 z m 306 -8 b 118 300 171 13 119 165 l 118 306 b 304 611 114 514 208 610 l 319 611 b 401 588 363 610 386 597 b 428 572 407 583 424 575 b 442 589 429 575 440 586 l 440 588 b 468 604 446 594 454 601 b 507 567 488 603 507 586 l 507 536 b 508 -51 507 419 508 -4 b 451 -217 508 -126 489 -183 b 329 -264 414 -251 369 -264 b 160 -193 254 -257 197 -246 b 178 -144 153 -176 161 -153 b 229 -158 197 -136 218 -142 b 261 -176 238 -164 250 -169 b 328 -186 276 -182 301 -186 b 431 -56 389 -178 424 -179 l 431 -33 b 429 44 431 -17 429 31 b 313 -8 394 0 351 -8 z "},"h":{"ha":625,"x_min":0,"x_max":0,"o":"m 413 451 b 332 532 414 482 392 533 b 210 465 276 531 240 503 l 210 38 b 168 -3 210 15 192 -3 b 126 38 146 -3 126 15 l 126 829 b 168 874 126 854 146 874 b 210 829 192 874 210 854 l 210 564 b 329 610 250 590 290 604 b 476 547 422 615 453 581 b 497 465 497 518 497 482 l 497 38 b 454 -3 497 15 476 -3 b 413 38 431 -3 413 15 z "},"i":{"ha":625,"x_min":0,"x_max":0,"o":"m 371 799 b 299 725 371 758 339 725 b 224 799 257 725 224 758 b 299 872 224 839 257 872 b 371 799 339 872 371 839 z m 182 0 b 143 33 161 0 143 11 b 182 67 143 53 161 67 l 281 67 l 281 529 l 208 529 b 168 564 186 529 168 542 b 208 600 168 583 186 600 l 317 600 b 344 589 326 600 338 596 b 356 563 351 582 356 572 l 356 67 l 443 67 b 481 33 464 67 481 53 b 443 0 481 11 464 0 z "},"j":{"ha":625,"x_min":0,"x_max":0,"o":"m 493 785 b 422 715 493 746 461 715 b 354 785 386 715 354 746 b 422 856 354 824 386 856 b 493 785 461 856 493 824 z m 310 -247 b 158 -218 268 -247 211 -235 b 133 -167 142 -210 126 -187 b 183 -144 142 -149 164 -139 l 183 -143 b 310 -168 240 -162 281 -168 b 413 -82 403 -167 410 -119 b 414 -65 413 -78 413 -69 l 414 525 l 240 525 b 201 564 218 525 201 542 b 240 603 201 585 218 603 l 453 603 b 479 592 463 603 472 599 b 493 564 488 585 493 574 l 493 -64 b 468 -178 492 -87 494 -135 b 310 -247 449 -207 403 -254 z "},"k":{"ha":625,"x_min":0,"x_max":0,"o":"m 424 15 b 254 294 424 15 313 203 b 206 238 238 278 211 244 l 206 39 b 168 -1 206 17 189 -1 b 126 39 146 -1 126 17 l 128 833 b 171 874 128 856 149 874 b 207 832 193 874 208 856 l 206 351 b 363 546 232 386 319 493 b 408 601 374 561 399 589 b 465 604 424 617 449 619 b 471 549 481 592 482 567 b 310 354 471 549 385 443 l 494 60 b 479 1 506 39 500 14 l 481 3 b 458 -3 474 0 465 -3 b 424 15 444 -3 431 3 z "},"l":{"ha":625,"x_min":0,"x_max":0,"o":"m 190 0 b 150 36 168 0 150 14 b 190 71 150 56 168 71 l 275 71 l 275 794 l 196 794 b 156 826 174 794 156 807 b 196 863 156 846 174 863 l 311 863 b 338 850 319 863 329 858 b 350 824 346 842 350 832 l 350 71 l 436 71 b 474 36 457 71 474 56 b 436 0 474 14 457 0 z "},"m":{"ha":625,"x_min":0,"x_max":0,"o":"m 513 -4 b 478 35 494 -4 478 13 l 478 40 b 479 363 478 71 479 243 b 478 438 479 394 478 421 l 478 464 b 458 521 476 504 472 507 l 458 519 l 453 525 b 351 456 436 542 351 564 l 351 367 b 350 38 351 233 350 38 b 314 -1 350 15 333 -1 b 276 38 294 -1 276 15 b 278 390 276 376 276 383 b 276 465 278 425 278 449 b 219 540 274 535 228 540 b 150 444 188 542 149 525 b 147 367 150 440 149 371 l 149 31 b 111 -8 149 8 131 -8 b 74 31 90 -8 74 8 l 71 579 b 108 618 71 600 88 618 b 149 568 124 618 142 594 b 239 606 182 592 213 604 b 335 543 272 606 308 582 b 438 603 368 582 404 601 b 550 496 494 603 543 561 b 551 422 553 471 551 451 l 551 35 b 513 -4 551 22 550 -3 z "},"n":{"ha":625,"x_min":0,"x_max":0,"o":"m 411 464 b 299 535 411 493 379 547 b 214 475 269 531 232 504 l 213 36 b 172 -4 213 13 194 -4 b 132 36 150 -4 132 13 l 133 564 b 175 603 133 585 153 603 b 218 568 192 603 208 588 b 329 611 253 589 274 604 l 342 611 b 469 543 403 613 450 579 b 492 458 490 506 492 475 l 492 38 b 451 -3 492 15 472 -3 b 411 38 428 -3 411 15 z "},"o":{"ha":625,"x_min":0,"x_max":0,"o":"m 314 526 b 210 449 250 521 232 497 b 188 292 192 394 188 332 l 188 286 b 214 146 186 250 194 189 b 313 72 239 99 260 75 b 413 150 371 78 392 101 b 439 294 435 197 439 257 l 439 304 b 414 453 439 344 435 407 b 314 526 389 519 349 526 z m 142 111 b 107 286 114 175 107 242 l 107 306 b 132 474 108 349 110 413 b 313 607 154 539 215 607 l 318 607 b 490 483 410 611 468 543 b 517 304 514 419 517 349 l 517 293 b 489 118 517 251 514 181 b 311 -8 467 57 408 -7 b 142 111 221 -8 165 54 z "},"p":{"ha":625,"x_min":0,"x_max":0,"o":"m 183 117 b 299 76 221 89 261 76 l 317 76 b 439 307 378 93 438 136 b 313 525 439 368 439 525 b 183 474 256 525 213 506 l 183 276 z m 104 529 b 142 599 103 569 117 594 b 188 568 157 599 174 588 b 310 611 225 592 264 613 b 519 314 503 604 519 418 b 319 -3 521 99 421 1 b 297 -6 311 -4 301 -6 b 211 18 264 -4 239 8 l 181 35 l 181 -200 b 144 -243 181 -225 165 -243 b 103 -200 121 -243 103 -224 z "},"q":{"ha":625,"x_min":0,"x_max":0,"o":"m 438 476 b 317 524 415 500 361 531 b 179 308 207 522 181 399 b 307 79 181 110 260 93 b 325 78 313 78 318 78 b 443 121 369 78 411 97 b 440 467 440 385 440 460 z m 299 -1 b 100 308 203 6 92 96 b 300 610 100 393 117 590 b 318 611 310 611 315 611 b 444 569 364 607 407 593 b 492 599 458 588 475 601 b 525 550 514 594 529 572 l 525 -197 b 481 -240 525 -222 506 -240 b 444 -199 460 -240 444 -222 l 443 40 b 324 -3 408 15 369 -1 b 299 -1 317 -3 308 -3 z "},"r":{"ha":625,"x_min":0,"x_max":0,"o":"m 188 563 b 225 601 188 583 204 601 b 268 556 243 601 260 582 b 393 606 310 588 353 604 b 503 558 433 606 472 590 b 503 503 518 543 519 521 b 449 503 489 489 463 489 b 394 531 431 522 413 529 b 264 415 336 536 264 496 l 264 32 b 225 -7 264 10 247 -7 b 188 32 204 -7 188 10 z "},"s":{"ha":625,"x_min":0,"x_max":0,"o":"m 319 -6 b 135 81 215 -4 150 64 b 136 138 121 99 121 125 b 193 131 154 150 178 149 l 199 128 b 229 101 206 119 215 110 b 321 71 253 86 283 71 b 421 158 407 82 417 107 b 304 271 421 225 383 238 b 139 446 243 293 139 331 l 139 456 b 318 611 140 529 207 613 b 490 533 438 611 486 540 b 479 475 504 513 499 486 b 422 492 461 464 436 472 b 403 508 415 497 410 504 b 318 533 385 522 360 533 b 217 451 243 532 221 486 b 331 344 217 392 250 378 b 500 165 393 322 496 282 l 500 160 b 326 -6 503 79 438 -6 z "},"t":{"ha":625,"x_min":0,"x_max":0,"o":"m 160 535 b 125 569 142 535 125 549 b 160 603 125 588 142 603 l 224 603 l 225 811 b 263 849 225 832 243 849 b 303 810 283 849 303 831 l 300 603 l 444 603 b 479 569 464 603 479 588 b 444 535 479 549 464 535 l 300 535 l 297 149 b 307 97 297 135 300 108 b 311 92 308 96 310 93 b 353 72 319 79 324 75 l 361 72 b 432 104 371 71 422 93 l 431 104 b 486 104 446 119 471 119 b 486 50 501 90 501 65 b 371 -4 453 19 413 1 l 349 -4 b 349 -6 347 -6 347 -6 b 242 60 296 -6 256 28 b 224 143 224 92 224 125 l 224 535 z "},"u":{"ha":625,"x_min":0,"x_max":0,"o":"m 279 -7 b 135 158 135 10 135 157 l 131 567 b 171 606 131 588 149 606 b 211 567 193 606 211 589 l 211 168 b 299 65 211 114 249 71 l 307 65 b 413 115 374 71 403 108 l 410 568 b 450 610 410 590 428 610 b 492 568 472 610 490 590 l 493 42 b 453 0 493 18 474 0 b 411 31 439 0 422 13 b 293 -8 375 7 360 -7 b 281 -7 290 -8 286 -8 z "},"v":{"ha":625,"x_min":0,"x_max":0,"o":"m 292 -3 b 251 28 272 -3 256 10 b 108 556 204 203 156 381 l 108 554 b 136 606 103 578 115 601 b 188 576 160 613 182 599 l 311 103 l 438 578 b 490 606 442 600 465 613 l 489 606 b 517 554 511 599 522 576 l 517 556 b 368 28 469 385 415 199 b 328 -3 361 13 343 -3 z "},"w":{"ha":625,"x_min":0,"x_max":0,"o":"m 204 -3 b 169 28 185 -1 172 8 l 72 554 b 103 603 68 578 82 599 b 149 572 122 607 143 592 l 213 140 l 271 358 l 271 357 b 308 385 276 375 293 385 b 347 358 324 386 342 375 l 410 140 l 475 571 b 521 603 478 592 500 606 b 551 554 542 597 556 576 l 456 31 b 421 -3 453 10 438 -1 b 379 22 403 -6 386 4 l 381 22 l 310 276 b 244 22 293 211 261 90 b 204 -3 240 10 238 -4 z "},"x":{"ha":625,"x_min":0,"x_max":0,"o":"m 143 3 b 128 63 122 15 115 43 l 268 306 b 138 540 226 382 179 465 b 153 597 128 563 133 586 b 207 582 172 611 197 601 l 207 583 l 314 367 b 424 581 346 429 393 518 l 424 579 b 479 594 435 599 460 607 b 493 535 497 583 504 554 l 360 304 l 497 60 b 483 3 508 40 501 14 b 463 -3 475 -1 468 -3 b 426 18 449 -3 435 4 l 426 17 l 314 247 b 197 18 279 181 231 86 l 199 18 b 163 -1 192 7 176 -1 b 143 4 157 -1 149 1 z "},"y":{"ha":625,"x_min":0,"x_max":0,"o":"m 89 -311 b 132 -262 89 -285 108 -264 b 235 -179 206 -262 229 -192 l 299 26 b 107 540 238 190 168 376 b 129 601 100 565 107 593 b 185 575 151 611 178 597 l 332 176 l 450 572 b 504 603 456 597 482 611 b 526 547 526 596 535 572 b 308 -208 454 296 381 43 l 310 -208 b 135 -354 308 -212 271 -339 b 89 -311 111 -353 92 -335 z "},"z":{"ha":625,"x_min":0,"x_max":0,"o":"m 167 0 b 133 18 154 0 139 7 b 132 56 126 31 126 44 l 375 525 l 185 525 b 147 564 164 525 147 542 b 185 603 147 585 164 603 l 439 603 b 468 589 453 603 464 597 b 472 544 476 575 479 558 l 472 546 l 231 78 l 457 78 b 497 39 478 78 497 60 b 457 0 497 17 478 0 z "},"{":{"ha":625,"x_min":0,"x_max":0,"o":"m 271 438 b 351 288 335 408 351 363 l 351 86 b 443 -46 351 -3 376 -40 b 469 -71 457 -47 469 -57 b 431 -96 469 -87 456 -96 b 322 -58 381 -96 343 -83 b 292 79 301 -36 292 10 l 292 283 b 240 400 292 342 275 382 b 219 433 226 408 219 419 b 240 474 219 456 221 465 b 292 590 275 492 292 532 l 292 793 b 315 922 292 854 299 896 b 426 969 335 954 372 969 b 469 943 454 969 469 961 b 458 924 469 933 461 926 b 419 915 446 921 432 918 b 351 788 378 904 351 861 l 351 585 b 271 438 350 479 317 465 z "},"|":{"ha":625,"x_min":0,"x_max":0,"o":"m 263 985 b 301 1025 263 1007 281 1025 b 340 985 322 1025 340 1007 l 340 -125 b 301 -162 340 -146 322 -162 b 263 -125 281 -162 263 -146 z "},"}":{"ha":625,"x_min":0,"x_max":0,"o":"m 313 86 b 221 -46 313 -3 288 -40 b 194 -71 207 -47 194 -57 b 233 -96 194 -87 208 -96 b 342 -58 283 -96 321 -83 b 372 79 363 -36 372 10 l 372 283 b 424 400 372 342 389 382 b 444 433 438 408 444 419 b 424 474 444 456 443 465 b 372 590 389 492 372 532 l 372 793 b 347 922 372 850 364 894 b 238 969 328 954 290 969 b 194 943 210 969 194 961 b 206 924 194 933 203 926 b 244 915 217 921 233 918 b 313 788 289 906 313 863 l 313 585 b 386 436 313 510 332 461 b 313 288 331 401 313 350 z "},"~":{"ha":625,"x_min":0,"x_max":0,"o":"m 596 582 b 438 411 556 472 501 411 b 317 467 415 411 375 429 b 185 526 253 506 208 526 b 117 488 161 526 135 513 b 64 383 126 497 96 444 l 60 375 b 28 411 49 388 38 399 b 79 531 51 472 67 513 b 182 589 104 571 139 589 b 321 533 211 589 257 571 b 439 475 390 493 426 475 b 565 615 485 475 525 519 z "},"¡":{"ha":625,"x_min":0,"x_max":0,"o":"m 226 926 b 307 1007 226 971 263 1007 b 386 926 350 1007 386 971 b 307 846 386 882 350 846 b 226 926 263 846 226 882 z m 344 36 b 306 -4 344 14 326 -4 b 267 36 285 -4 267 14 l 267 692 b 306 731 267 714 285 731 b 344 692 326 731 344 714 z "},"¦":{"ha":625,"x_min":0,"x_max":0,"o":"m 332 664 l 293 664 l 293 956 l 332 956 z m 332 172 l 293 172 l 293 475 l 332 475 z "},"§":{"ha":625,"x_min":0,"x_max":0,"o":"m 368 213 b 508 376 461 272 508 326 b 440 479 508 407 486 443 l 301 588 b 207 540 258 572 225 556 b 143 432 164 504 143 468 b 186 360 143 407 158 383 z m 283 204 b 239 235 275 211 260 224 l 240 233 b 82 424 125 318 82 371 b 254 621 82 499 147 572 b 156 764 176 681 156 717 b 207 878 156 807 172 844 b 332 933 240 911 282 929 b 463 915 381 938 424 932 b 515 863 499 899 515 881 b 488 831 515 846 501 831 b 443 849 481 829 467 836 b 333 875 407 869 368 876 b 215 771 269 869 215 817 b 263 689 215 742 231 715 b 425 571 315 651 372 607 b 489 519 457 544 478 528 l 488 519 b 567 390 540 474 567 431 b 413 181 567 322 515 251 b 524 22 486 115 524 64 b 326 -150 524 -67 439 -140 b 156 -110 271 -154 213 -140 b 108 -60 125 -93 108 -76 b 132 -31 108 -43 119 -32 b 158 -37 138 -29 146 -32 l 158 -36 b 251 -83 200 -62 231 -78 b 328 -89 272 -89 296 -90 b 463 14 403 -83 463 -33 b 404 107 463 44 440 79 z "},"«":{"ha":625,"x_min":0,"x_max":0,"o":"m 175 413 b 139 382 169 406 164 399 b 175 350 163 367 169 357 l 288 203 b 300 168 297 193 300 182 b 274 128 300 142 292 128 b 235 160 265 128 251 139 l 121 307 b 79 382 92 343 79 369 b 121 456 79 394 92 421 l 235 603 b 272 635 251 624 264 635 b 300 594 289 635 300 621 b 288 561 300 582 297 571 z m 421 413 b 390 382 415 404 407 396 b 421 350 407 368 415 358 l 536 203 b 549 168 544 192 549 181 b 521 128 549 142 539 128 b 481 160 511 128 497 142 l 368 307 b 326 382 340 343 326 369 b 368 456 326 394 340 421 b 481 603 406 504 444 554 b 521 635 497 622 511 635 b 549 594 539 635 549 621 b 536 561 549 583 544 572 z "},"´":{"ha":625,"x_min":0,"x_max":0,"o":"m 410 1001 b 231 840 349 946 292 893 b 210 882 224 857 215 871 b 375 1061 267 944 318 1000 z "},"¶":{"ha":625,"x_min":0,"x_max":0,"o":"m 578 938 l 533 938 l 533 -172 l 481 -172 l 481 938 l 339 938 l 339 -172 l 286 -172 l 286 450 l 249 449 b 100 540 188 444 138 476 b 47 728 65 599 47 661 b 325 1001 47 896 157 1001 l 578 1001 z "},"»":{"ha":625,"x_min":0,"x_max":0,"o":"m 92 561 l 207 413 b 238 382 213 404 221 396 b 207 350 221 368 213 358 l 92 203 b 79 168 83 192 79 181 b 107 128 79 142 89 128 b 147 160 117 128 131 142 b 260 307 183 208 222 258 b 301 382 288 343 301 369 b 260 456 301 394 288 421 l 147 603 b 107 635 131 622 117 635 b 79 594 89 635 79 621 b 92 561 79 583 83 572 z m 340 561 l 453 413 b 489 382 458 406 465 397 b 453 350 464 364 458 357 b 340 203 415 301 376 251 b 328 168 331 193 328 182 b 354 128 328 142 336 128 b 393 160 364 128 376 139 l 507 307 b 549 382 536 343 549 369 b 507 456 549 394 536 421 l 393 603 b 356 635 376 624 364 635 b 328 594 338 635 328 621 b 340 561 328 582 331 571 z "},"¿":{"ha":625,"x_min":0,"x_max":0,"o":"m 244 789 b 324 869 244 833 279 869 b 403 789 367 869 403 833 b 324 710 403 744 367 710 b 244 789 279 710 244 744 z m 283 568 b 314 601 283 590 294 601 b 344 568 333 601 344 590 l 344 450 b 329 364 344 411 338 383 b 239 285 322 350 293 324 b 174 181 197 251 174 218 b 321 61 174 110 236 61 b 449 99 358 61 400 72 l 447 99 b 493 113 465 107 481 113 b 517 83 507 113 517 99 b 475 40 517 68 504 53 b 318 -3 419 11 368 -3 b 114 181 197 -3 114 72 b 178 319 114 229 136 275 b 199 331 182 319 190 326 b 222 349 206 336 225 351 b 247 367 229 354 250 369 b 283 451 271 383 283 410 z "},"ß":{"ha":625,"x_min":0,"x_max":0,"o":"m 300 -10 b 272 35 281 -6 268 14 b 315 63 276 54 294 67 b 342 61 319 63 332 61 b 465 235 388 69 458 71 b 356 461 463 439 383 457 b 360 467 358 461 360 464 b 310 490 338 465 315 474 b 325 533 301 506 310 525 b 379 576 325 533 350 549 b 431 675 408 604 431 639 b 322 788 431 726 401 786 b 201 651 267 789 201 736 l 201 26 b 165 -11 201 6 185 -11 b 126 26 143 -11 126 6 l 126 651 b 322 863 126 774 221 863 b 506 675 444 861 511 764 b 417 515 504 613 460 551 b 539 235 500 478 539 367 b 465 32 539 138 510 71 b 339 -12 421 -7 371 -12 z "},"ñ":{"ha":625,"x_min":0,"x_max":0,"o":"m 185 814 b 243 853 210 835 229 849 b 300 831 249 853 267 844 l 299 831 b 371 807 329 814 356 807 b 415 831 388 807 401 815 b 451 853 428 844 442 853 b 479 832 467 853 479 843 b 449 782 479 821 469 806 b 392 742 424 756 404 742 b 294 781 381 742 350 756 b 261 790 279 786 268 789 b 203 756 249 792 229 779 l 203 757 b 176 744 194 747 185 744 b 147 765 161 744 147 756 b 185 814 147 774 163 790 z m 411 464 b 299 535 404 485 379 547 b 214 475 269 531 232 504 l 213 36 b 172 -4 213 13 194 -4 b 132 36 150 -4 132 13 l 133 564 b 175 603 133 585 153 603 b 218 568 192 603 208 588 b 329 611 253 589 290 606 l 342 611 b 469 543 403 613 450 579 b 492 458 490 506 492 475 l 492 38 b 451 -3 492 15 472 -3 b 411 38 428 -3 411 15 z "},"õ":{"ha":625,"x_min":0,"x_max":0,"o":"m 244 814 b 300 792 251 813 268 806 l 299 792 b 371 768 329 775 356 768 b 415 792 388 768 401 776 b 451 814 428 807 442 814 b 479 793 467 814 479 806 b 449 743 479 782 469 767 b 392 703 424 717 404 703 b 294 742 381 703 350 717 b 261 751 279 747 268 750 b 203 717 249 753 229 740 l 203 718 b 176 707 194 710 185 707 b 147 726 161 707 147 717 b 185 775 147 735 163 751 b 244 814 211 797 231 813 z m 314 526 b 210 449 250 521 232 497 b 188 292 192 394 188 332 l 188 286 b 214 146 186 250 194 189 b 313 72 239 99 260 75 b 413 150 371 78 392 101 b 439 294 435 197 439 257 l 439 304 b 414 453 439 344 435 407 b 314 526 389 519 349 526 z m 142 111 b 107 286 114 175 107 242 l 107 306 b 132 474 108 349 110 413 b 313 607 154 539 215 607 l 318 607 b 490 483 410 611 468 543 b 517 304 514 419 517 349 l 517 293 b 489 118 517 251 514 181 b 311 -8 467 57 408 -7 b 142 111 221 -8 165 54 z "},"ö":{"ha":625,"x_min":0,"x_max":0,"o":"m 254 760 b 194 696 254 725 226 696 b 132 760 160 696 132 725 b 194 822 132 793 160 822 b 254 760 226 822 254 793 z m 497 760 b 436 696 497 725 469 696 b 374 760 401 696 374 725 b 436 822 374 793 401 822 b 497 760 469 822 497 793 z m 314 526 b 210 449 250 521 232 497 b 188 292 192 394 188 332 l 188 286 b 214 146 186 250 194 189 b 313 72 239 99 260 75 b 413 150 371 78 392 101 b 439 294 435 197 439 257 l 439 304 b 414 453 439 344 435 407 b 314 526 389 519 349 526 z m 142 111 b 107 286 114 175 107 242 l 107 306 b 132 474 108 349 110 413 b 313 607 154 539 215 607 l 318 607 b 490 483 410 611 468 543 b 517 304 514 419 517 349 l 517 293 b 489 118 517 251 514 181 b 311 -8 467 57 408 -7 b 142 111 221 -8 165 54 z "},"÷":{"ha":625,"x_min":0,"x_max":0,"o":"m 394 264 b 376 213 394 247 386 228 b 325 189 364 199 349 189 b 251 260 282 189 251 226 b 268 311 251 279 258 299 b 321 336 281 326 299 336 b 375 311 343 336 363 328 b 394 264 388 299 394 283 z m 394 679 b 374 633 394 664 388 647 b 321 607 360 617 342 607 b 268 633 299 607 281 618 b 251 686 258 649 251 669 b 326 758 251 724 279 758 b 378 731 349 758 365 747 b 394 679 389 718 394 700 z m 136 432 b 96 471 115 432 96 449 b 136 508 96 492 115 508 l 506 508 b 544 471 526 508 544 492 b 506 432 544 449 526 432 z "},"˜":{"ha":625,"x_min":0,"x_max":0,"o":"m 600 568 b 442 407 558 458 506 407 b 321 457 421 407 381 425 b 189 510 258 493 215 510 b 121 474 164 510 140 499 b 64 372 111 460 92 428 b 32 407 50 390 46 390 b 85 519 51 457 69 497 b 186 574 113 553 147 574 b 325 524 215 574 261 556 b 443 471 393 488 432 471 b 568 607 489 471 529 515 z "},";":{"ha":625,"x_min":0,"x_max":0,"o":"m 410 447 b 311 349 410 393 365 349 b 214 447 258 349 214 393 b 311 546 214 501 258 546 b 410 447 365 546 410 501 z m 293 -226 b 281 -176 275 -215 271 -193 b 285 -165 281 -176 282 -172 l 285 -167 b 340 0 297 -146 325 -85 l 308 0 b 211 99 256 0 211 44 b 308 197 211 153 256 197 b 403 129 354 197 394 167 l 408 107 b 414 44 413 86 414 64 b 344 -211 413 -83 357 -189 l 346 -210 b 311 -232 336 -225 324 -232 b 292 -226 304 -232 299 -229 z "},":":{"ha":625,"x_min":0,"x_max":0,"o":"m 410 136 b 311 38 410 82 365 38 b 214 136 258 38 214 82 b 311 235 214 190 258 235 b 410 136 365 235 410 190 z m 410 485 b 311 386 410 431 365 386 b 214 485 258 386 214 431 b 311 583 214 539 258 583 b 410 485 365 583 410 539 z "},"±":{"ha":625,"x_min":0,"x_max":0,"o":"m 342 810 l 343 810 b 347 808 344 810 346 808 z m 361 303 l 363 304 l 361 300 z m 128 93 b 88 132 107 93 88 110 b 128 169 88 153 107 169 l 497 169 b 536 132 518 169 536 153 b 497 93 536 110 518 93 z m 93 508 b 54 547 72 508 54 526 b 93 586 54 569 72 586 l 285 586 l 285 782 b 286 786 285 783 286 785 l 289 792 b 293 797 290 793 293 797 l 300 806 b 319 814 307 811 310 813 l 322 814 b 332 811 325 811 328 811 b 342 810 335 810 338 810 b 347 807 343 808 346 807 l 349 806 b 357 794 353 800 354 800 l 357 796 b 358 792 358 792 358 793 l 363 775 l 363 586 l 539 586 b 576 547 560 586 576 569 b 539 508 576 526 560 508 l 363 508 l 363 313 b 361 306 363 310 361 307 l 361 303 l 358 300 l 358 296 b 353 288 357 293 356 290 l 349 283 b 344 281 347 282 346 281 b 324 275 336 276 329 275 l 315 275 l 313 275 l 314 275 b 301 282 307 278 303 281 l 288 294 b 285 307 286 297 285 306 l 285 508 z "},"µ":{"ha":625,"x_min":0,"x_max":0,"o":"m 281 -7 b 242 6 265 -4 253 0 b 213 18 239 7 215 17 l 213 -318 b 174 -356 213 -339 196 -356 b 135 -318 153 -356 135 -339 l 135 158 l 131 567 b 171 606 131 588 149 606 b 211 567 193 606 211 589 l 215 156 b 217 153 215 156 217 154 b 226 115 218 146 219 135 b 299 58 239 92 263 61 l 307 58 b 411 135 392 58 411 119 l 410 568 b 450 610 410 590 428 610 b 492 568 472 610 490 590 l 493 42 b 453 0 493 18 474 0 b 411 31 439 0 422 13 b 293 -8 375 7 335 -7 b 281 -7 290 -8 286 -8 z "},"“":{"ha":625,"x_min":0,"x_max":0,"o":"m 179 833 b 218 874 179 856 197 874 b 257 833 239 874 257 856 l 257 647 b 218 610 257 626 239 610 b 179 647 197 610 179 626 z m 378 833 b 417 874 378 856 396 874 b 456 833 438 874 456 856 l 456 647 b 417 610 456 626 438 610 b 378 647 396 610 378 626 z "},"”":{"ha":625,"x_min":0,"x_max":0,"o":"m 179 833 b 218 874 179 856 197 874 b 257 833 239 874 257 856 l 257 647 b 218 610 257 626 239 610 b 179 647 197 610 179 626 z m 378 833 b 417 874 378 856 396 874 b 456 833 438 874 456 856 l 456 647 b 417 610 456 626 438 610 b 378 647 396 610 378 626 z "},"‚":{"ha":625,"x_min":0,"x_max":0,"o":"m 293 -226 b 281 -176 275 -215 271 -193 b 285 -165 281 -176 282 -172 l 285 -167 b 340 0 297 -146 325 -85 l 308 0 b 211 99 256 0 211 44 b 308 197 211 153 256 197 b 403 129 354 197 394 167 b 410 106 404 125 408 110 l 408 107 b 414 44 413 86 414 64 b 344 -211 413 -83 357 -189 l 346 -210 b 311 -232 336 -225 324 -232 b 292 -226 304 -232 299 -229 z "},"’":{"ha":625,"x_min":0,"x_max":0,"o":"m 263 833 b 301 874 263 856 281 874 b 340 833 322 874 340 856 l 340 647 b 301 610 340 626 322 610 b 263 647 281 610 263 626 z "},"‘":{"ha":625,"x_min":0,"x_max":0,"o":"m 263 833 b 301 874 263 856 281 874 b 340 833 322 874 340 856 l 340 647 b 301 610 340 626 322 610 b 263 647 281 610 263 626 z "},"„":{"ha":625,"x_min":0,"x_max":0,"o":"m 179 833 b 218 874 179 856 197 874 b 257 833 239 874 257 856 l 257 647 b 218 610 257 626 239 610 b 179 647 197 610 179 626 z m 378 833 b 417 874 378 856 396 874 b 456 833 438 874 456 856 l 456 647 b 417 610 456 626 438 610 b 378 647 396 610 378 626 z "},"­":{"ha":625,"x_min":0,"x_max":0,"o":"m 128 331 b 88 369 107 331 88 347 b 128 407 88 390 107 407 l 497 407 b 536 369 518 407 536 390 b 497 331 536 347 518 331 z "},"¯":{"ha":625,"x_min":0,"x_max":0,"o":"m 128 331 b 88 369 107 331 88 347 b 128 407 88 390 107 407 l 497 407 b 536 369 518 407 536 390 b 497 331 536 347 518 331 z "},"–":{"ha":625,"x_min":0,"x_max":0,"o":"m 128 331 b 88 369 107 331 88 347 b 128 407 88 390 107 407 l 497 407 b 536 369 518 407 536 390 b 497 331 536 347 518 331 z "},"—":{"ha":625,"x_min":0,"x_max":0,"o":"m 128 331 b 88 369 107 331 88 347 b 128 407 88 390 107 407 l 497 407 b 536 369 518 407 536 390 b 497 331 536 347 518 331 z "},"€":{"ha":625,"x_min":0,"x_max":0,"o":"m 78 319 b 38 357 57 319 38 336 b 78 396 38 379 57 396 l 158 396 l 158 421 b 157 479 157 436 157 456 l 78 479 b 38 518 57 479 38 496 b 78 556 38 539 57 556 l 161 556 b 369 881 185 790 278 874 b 396 882 381 882 389 882 b 560 779 510 881 557 786 b 542 726 568 763 560 736 b 493 744 522 717 503 724 b 488 751 493 744 490 747 l 489 750 b 464 782 485 758 476 769 b 394 808 447 794 426 808 l 378 808 b 236 556 318 794 260 778 l 447 556 b 486 518 468 556 486 539 b 447 479 486 496 468 479 l 232 479 b 233 421 232 457 232 435 l 233 396 l 447 396 b 486 357 468 396 486 379 b 447 319 486 336 468 319 l 240 319 b 301 106 256 197 282 132 b 371 60 325 76 349 65 b 379 58 375 60 376 60 b 506 178 469 51 506 178 b 560 207 511 200 536 215 b 582 158 576 204 588 182 b 392 -14 582 154 539 -1 l 375 -14 b 239 57 349 -12 282 -3 b 163 319 204 108 176 193 z "},"å":{"ha":625,"x_min":0,"x_max":0,"o":"m 413 776 b 333 697 413 733 376 697 b 257 776 292 697 257 733 b 333 854 257 818 292 854 b 413 776 376 854 413 818 z m 321 279 b 207 164 243 265 210 232 b 292 67 208 81 250 72 l 303 67 b 317 68 307 67 313 68 b 392 97 346 71 369 75 b 417 129 406 111 411 119 l 417 290 b 321 279 353 289 356 285 z m 185 29 b 128 160 151 56 128 101 l 128 167 b 365 354 135 335 294 344 b 414 364 382 357 388 354 b 415 381 414 371 414 378 b 415 479 415 472 415 476 b 324 536 414 501 410 533 b 247 510 285 536 263 524 b 225 486 232 500 225 486 b 172 472 215 468 192 461 b 157 525 154 482 147 506 b 324 614 160 531 210 613 b 467 554 390 614 442 589 b 494 467 490 521 494 485 l 496 21 b 457 -11 497 0 478 -10 b 415 31 440 -11 422 3 b 313 -8 382 13 347 -3 l 294 -8 b 185 29 261 -8 221 0 z "},"æ":{"ha":625,"x_min":0,"x_max":0,"o":"m 538 357 b 517 475 536 389 526 443 b 513 481 515 476 514 479 l 515 479 b 438 535 497 513 486 533 b 353 449 396 532 368 497 b 342 381 349 433 344 401 b 340 357 342 378 340 358 z m 189 279 b 90 164 122 265 92 232 b 164 67 90 82 128 75 l 174 67 b 186 68 178 67 182 68 b 254 99 213 71 235 75 b 257 103 254 100 256 101 b 274 131 264 110 269 119 l 274 254 b 272 290 272 263 272 278 b 206 282 214 290 219 285 b 188 278 200 281 193 279 z m 422 -3 b 342 38 399 0 371 13 b 307 -11 335 6 321 -10 b 272 33 293 -11 278 3 b 182 -8 243 13 211 -3 l 167 -8 b 76 28 139 -8 106 0 b 26 160 49 54 26 101 l 26 167 b 231 353 43 314 169 344 b 272 367 246 356 250 356 b 274 386 272 376 272 382 l 274 469 b 272 479 272 472 272 475 b 193 536 271 501 268 533 b 124 508 160 536 138 522 l 124 510 b 107 486 113 500 107 488 b 64 471 99 471 78 460 b 51 526 50 482 43 506 b 193 614 57 538 100 613 b 324 540 249 614 294 583 b 428 607 351 578 388 604 b 574 506 507 610 553 557 b 599 360 596 451 599 394 b 597 328 599 344 597 333 b 565 292 594 306 583 292 l 336 292 l 336 250 b 351 161 339 222 343 189 b 424 75 369 108 392 81 b 522 138 489 64 508 107 b 529 151 522 138 528 147 b 569 165 539 168 557 175 b 583 110 586 154 592 131 b 439 -3 576 99 540 -3 z "},"ç":{"ha":625,"x_min":0,"x_max":0,"o":"m 233 -226 b 222 -176 217 -215 213 -193 b 226 -165 222 -176 224 -172 l 226 -167 b 281 -3 238 -144 267 -85 b 147 114 213 17 165 65 b 114 313 119 179 114 251 b 143 485 114 353 121 425 b 311 611 167 544 222 607 l 318 611 b 497 475 465 610 497 481 b 468 429 501 454 489 435 b 424 450 447 425 426 435 b 403 496 418 467 411 486 l 403 494 b 318 532 388 514 368 532 b 215 454 261 531 240 506 b 192 313 196 408 192 349 b 218 146 192 258 199 192 b 318 71 243 94 264 72 b 432 161 408 68 428 140 l 431 158 b 433 169 433 164 433 169 b 476 203 438 190 456 206 b 510 160 497 200 513 182 b 351 -3 510 157 490 24 b 285 -211 335 -114 296 -192 l 286 -210 b 253 -232 278 -225 265 -232 b 232 -226 246 -232 240 -229 z "},"è":{"ha":625,"x_min":0,"x_max":0,"o":"m 239 832 b 228 886 219 844 215 869 b 282 894 242 906 265 910 b 435 788 331 861 386 822 b 443 733 450 775 456 750 b 390 724 432 718 407 715 z m 426 357 b 403 479 425 390 418 446 b 313 535 383 513 374 533 b 218 449 264 532 236 501 l 218 450 b 200 361 208 426 203 388 z m 297 -3 b 143 138 208 4 161 78 b 119 301 121 204 119 271 b 143 475 121 351 122 415 b 303 607 161 532 213 603 b 475 506 396 611 451 558 b 504 360 501 451 504 394 b 503 328 504 344 503 333 b 464 292 499 306 481 292 l 197 292 b 217 161 199 253 204 201 b 300 75 239 106 263 81 b 413 139 367 67 396 110 l 411 138 l 422 154 b 471 164 431 169 454 175 b 489 117 490 154 497 133 b 315 -3 483 104 435 -3 z "},"é":{"ha":625,"x_min":0,"x_max":0,"o":"m 403 890 b 456 878 421 899 446 893 l 456 876 b 442 825 467 858 460 835 b 281 731 389 793 333 763 b 228 744 264 724 240 728 b 242 799 217 764 224 789 l 242 797 z m 426 357 b 403 479 425 390 418 446 b 313 535 383 513 374 533 b 218 449 264 532 236 501 l 218 450 b 200 361 208 426 203 388 z m 297 -3 b 143 138 208 4 161 78 b 119 301 121 204 119 271 b 143 475 121 351 122 415 b 303 607 161 532 213 603 b 475 506 396 611 451 558 b 504 360 501 451 504 394 b 503 329 504 344 503 335 b 464 292 500 307 483 292 l 197 292 b 217 161 199 253 204 201 b 300 75 239 106 263 81 b 413 139 367 67 396 110 l 411 138 l 422 154 b 471 164 431 169 454 175 b 489 117 490 154 497 133 b 315 -3 483 104 435 -3 z "},"ê":{"ha":625,"x_min":0,"x_max":0,"o":"m 211 726 b 160 747 193 715 171 725 b 175 794 150 764 160 783 l 318 886 b 361 888 328 896 346 896 b 501 781 407 853 456 817 b 508 725 517 768 521 743 b 461 717 500 711 475 710 l 340 810 z m 440 357 b 417 479 439 390 432 446 b 326 535 397 513 388 533 b 232 449 278 532 250 501 l 232 450 b 214 361 222 426 217 388 z m 311 -3 b 157 138 222 4 175 78 b 133 301 135 204 133 271 b 157 475 135 351 136 415 b 317 607 175 532 226 603 b 489 506 410 611 465 558 b 518 360 515 451 518 394 b 517 328 518 344 517 333 b 478 292 513 306 494 292 l 211 292 b 231 161 213 253 218 201 b 314 75 253 106 276 81 b 426 139 381 67 410 110 l 425 138 l 436 154 b 485 164 444 169 468 175 b 503 117 504 154 511 133 b 329 -3 497 104 449 -3 z "},"ë":{"ha":625,"x_min":0,"x_max":0,"o":"m 263 772 b 203 710 263 738 235 710 b 140 772 168 710 140 738 b 203 835 140 807 168 835 b 263 772 235 835 263 807 z m 506 772 b 444 710 506 738 478 710 b 382 772 410 710 382 738 b 444 835 382 807 410 835 b 506 772 478 835 506 807 z m 426 357 b 403 479 425 390 418 446 b 313 535 383 513 374 533 b 218 449 264 532 236 501 l 218 450 b 200 361 208 426 203 388 z m 297 -3 b 143 138 208 4 161 78 b 119 301 121 204 119 271 b 143 475 121 351 122 415 b 303 607 161 532 213 603 b 475 506 396 611 451 558 b 504 360 501 451 504 394 b 503 329 504 344 503 335 b 464 292 500 307 482 292 l 197 292 b 217 161 199 253 204 201 b 300 75 238 106 263 81 b 413 139 367 67 396 110 l 411 138 l 422 154 b 471 164 431 169 454 175 b 489 117 490 154 497 133 b 315 -3 482 104 433 -3 z "},"ì":{"ha":625,"x_min":0,"x_max":0,"o":"m 171 832 b 161 886 153 844 149 869 b 215 894 174 906 199 910 b 367 788 264 861 318 822 b 375 733 382 775 389 750 b 322 724 365 718 340 715 z m 182 0 b 143 33 161 0 143 11 b 182 67 143 53 161 67 l 281 67 l 281 529 l 208 529 b 168 564 186 529 168 542 b 208 600 168 583 186 600 l 317 600 b 344 589 326 600 338 596 b 356 563 351 582 356 572 l 356 67 l 443 67 b 481 33 464 67 481 53 b 443 0 481 11 464 0 z "},"í":{"ha":625,"x_min":0,"x_max":0,"o":"m 403 890 b 456 878 421 899 446 893 l 456 876 b 442 825 467 858 460 835 b 281 731 389 793 333 763 b 228 744 264 724 240 728 b 242 799 217 764 224 789 l 242 797 z m 182 0 b 143 33 161 0 143 11 b 182 67 143 53 161 67 l 281 67 l 281 529 l 208 529 b 168 564 186 529 168 542 b 208 600 168 583 186 600 l 317 600 b 344 589 326 600 338 596 b 356 563 351 582 356 572 l 356 67 l 443 67 b 481 33 464 67 481 53 b 443 0 481 11 464 0 z "},"î":{"ha":625,"x_min":0,"x_max":0,"o":"m 175 726 b 124 747 158 715 136 725 b 140 794 115 764 124 783 l 283 886 b 326 888 293 896 311 896 b 465 781 371 853 419 817 b 474 725 482 768 486 743 b 426 717 464 711 440 710 l 306 810 z m 183 0 b 143 33 161 0 143 11 b 183 67 143 53 161 67 l 282 67 l 282 529 l 208 529 b 168 564 188 529 168 542 b 208 600 168 583 188 600 l 317 600 b 344 589 328 600 338 596 b 356 563 351 582 356 572 l 356 67 l 443 67 b 482 33 464 67 482 53 b 443 0 482 11 464 0 z "},"ï":{"ha":625,"x_min":0,"x_max":0,"o":"m 246 772 b 186 710 246 738 218 710 b 124 772 151 710 124 738 b 186 835 124 807 151 835 b 246 772 218 835 246 807 z m 489 772 b 426 710 489 738 461 710 b 365 772 393 710 365 738 b 426 835 365 807 393 835 b 489 772 461 835 489 807 z m 182 0 b 143 33 161 0 143 11 b 182 67 143 53 161 67 l 281 67 l 281 529 l 208 529 b 168 564 188 529 168 542 b 208 600 168 583 188 600 l 317 600 b 344 589 326 600 338 596 b 356 563 351 582 356 572 l 356 67 l 443 67 b 482 33 464 67 482 53 b 443 0 482 11 464 0 z "},"ò":{"ha":625,"x_min":0,"x_max":0,"o":"m 239 832 b 228 886 219 844 215 869 b 282 894 242 906 265 910 b 435 788 331 861 386 822 b 443 733 450 775 456 750 b 390 724 432 718 407 715 z m 314 526 b 210 449 250 521 232 497 b 188 292 192 394 188 332 l 188 286 b 214 146 186 250 194 189 b 313 72 239 99 260 75 b 413 150 371 78 392 101 b 439 294 435 197 439 257 l 439 304 b 414 453 439 344 435 407 b 314 526 389 519 349 526 z m 142 111 b 107 286 114 175 107 242 l 107 306 b 132 474 108 349 110 413 b 313 607 154 539 215 607 l 318 607 b 490 483 410 611 468 543 b 517 304 514 419 517 349 l 517 293 b 489 118 517 251 514 181 b 311 -8 467 57 408 -7 b 142 111 221 -8 165 54 z "},"ó":{"ha":625,"x_min":0,"x_max":0,"o":"m 403 890 b 456 878 421 899 446 893 l 456 876 b 442 825 467 858 460 835 b 281 731 389 793 333 763 b 228 744 264 724 240 728 b 242 799 217 764 224 789 l 242 797 z m 314 526 b 210 449 250 521 232 497 b 188 292 192 394 188 332 l 188 286 b 214 146 186 250 194 189 b 313 72 239 99 260 75 b 413 150 371 78 392 101 b 439 294 435 197 439 257 l 439 304 b 414 453 439 344 435 407 b 314 526 389 519 349 526 z m 142 111 b 107 286 114 175 107 242 l 107 306 b 132 474 108 349 110 413 b 313 607 154 539 215 607 l 318 607 b 490 483 410 611 468 543 b 517 304 514 419 517 349 l 517 293 b 489 118 517 251 514 181 b 311 -8 467 57 408 -7 b 142 111 221 -8 165 54 z "},"ô":{"ha":625,"x_min":0,"x_max":0,"o":"m 188 726 b 136 747 171 715 149 725 b 153 794 128 764 136 783 l 296 886 b 339 888 306 896 324 896 b 478 781 383 853 432 817 b 486 725 494 768 499 743 b 439 717 476 711 453 710 l 318 810 z m 314 526 b 210 449 250 521 232 497 b 188 292 192 394 188 332 l 188 286 b 214 146 186 250 194 189 b 313 72 239 99 260 75 b 413 150 371 78 392 101 b 439 294 435 197 439 257 l 439 304 b 414 453 439 344 435 407 b 314 526 389 519 349 526 z m 142 111 b 107 286 114 175 107 242 l 107 306 b 132 474 108 349 110 413 b 313 607 154 539 215 607 l 318 607 b 490 483 410 611 468 543 b 517 304 514 419 517 349 l 517 293 b 489 118 517 251 514 181 b 311 -8 467 57 408 -7 b 142 111 221 -8 165 54 z "},"Ç":{"ha":625,"x_min":0,"x_max":0,"o":"m 286 -236 b 275 -186 269 -226 265 -203 b 279 -176 275 -186 276 -182 b 332 -15 290 -153 318 -97 b 179 57 301 -14 222 -3 b 100 419 135 124 106 232 b 311 881 90 758 201 872 b 338 882 322 882 329 882 b 501 779 451 881 499 786 b 483 726 510 763 501 736 b 435 744 464 717 444 724 b 428 751 435 744 431 747 l 429 750 b 406 782 425 758 418 769 b 335 808 389 794 368 808 l 319 808 b 174 460 251 793 182 771 b 175 421 174 450 174 433 b 243 106 179 247 217 140 b 313 60 267 76 290 65 b 321 58 317 60 318 60 b 447 178 411 51 447 178 b 501 207 453 200 476 215 b 522 158 518 204 528 182 b 407 3 522 154 500 51 b 339 -222 397 -112 350 -200 l 340 -221 b 306 -242 331 -235 318 -242 b 285 -236 299 -242 293 -239 z "},"È":{"ha":625,"x_min":0,"x_max":0,"o":"m 238 1086 b 228 1140 218 1100 214 1124 b 282 1150 240 1160 264 1164 b 433 1042 331 1115 385 1076 b 442 988 449 1029 454 1006 b 389 978 432 972 406 969 z m 243 421 l 243 75 b 483 72 317 75 407 72 b 522 35 503 71 522 57 b 485 -1 521 14 504 -1 l 204 0 b 168 38 185 0 168 17 l 168 833 b 179 861 168 844 171 854 b 206 872 186 868 194 872 l 483 871 b 519 831 503 871 519 853 b 482 794 519 811 501 794 l 243 796 l 243 494 l 389 494 b 425 456 408 493 425 478 b 388 421 425 436 407 421 z "},"É":{"ha":625,"x_min":0,"x_max":0,"o":"m 379 1136 b 432 1124 397 1146 422 1139 l 432 1122 b 418 1071 443 1104 436 1081 b 257 976 365 1039 311 1008 b 204 990 240 969 217 974 b 218 1044 193 1010 200 1035 l 218 1043 z m 232 421 l 232 75 b 474 72 307 75 397 72 b 511 35 492 69 511 56 b 474 -1 510 14 493 -1 l 193 0 b 157 38 174 0 157 17 l 157 833 b 168 861 157 844 160 854 b 194 872 175 868 183 872 l 472 871 b 508 831 492 871 508 853 b 471 794 508 811 490 794 l 232 796 l 232 494 l 378 494 b 414 456 397 493 414 478 b 376 421 414 436 396 421 z "},"Ê":{"ha":625,"x_min":0,"x_max":0,"o":"m 197 993 b 146 1015 181 982 158 992 b 163 1063 138 1031 146 1051 l 306 1154 b 349 1156 315 1164 333 1164 b 488 1049 393 1119 442 1083 b 496 992 504 1035 508 1011 b 449 983 486 978 463 976 l 328 1076 z m 222 421 l 222 75 b 463 72 296 75 386 72 b 501 35 482 71 501 57 b 464 -1 500 14 483 -1 l 183 0 b 147 38 164 0 147 17 l 147 833 b 158 861 147 844 150 854 b 185 872 165 868 174 872 l 463 871 b 499 831 482 871 499 853 b 461 794 499 811 481 794 l 222 796 l 222 494 l 368 494 b 404 456 388 493 404 478 b 367 421 404 436 386 421 z "},"Ë":{"ha":625,"x_min":0,"x_max":0,"o":"m 268 1044 b 207 982 268 1011 240 982 b 146 1044 174 982 146 1011 b 207 1108 146 1079 174 1108 b 268 1044 240 1108 268 1079 z m 511 1044 b 449 982 511 1011 483 982 b 388 1044 415 982 388 1011 b 449 1108 388 1079 415 1108 b 511 1044 483 1108 511 1079 z m 236 421 l 236 75 b 476 72 311 75 400 72 b 515 35 496 71 515 57 b 478 -1 514 14 497 -1 l 197 0 b 163 38 178 0 163 17 l 163 833 b 172 861 163 844 165 854 b 199 872 179 868 188 872 l 476 871 b 513 831 496 871 513 853 b 475 794 513 811 494 794 l 236 796 l 236 494 l 382 494 b 418 456 401 493 418 478 b 381 421 418 436 400 421 z "},"Ì":{"ha":625,"x_min":0,"x_max":0,"o":"m 239 1086 b 228 1140 219 1100 215 1124 b 282 1150 242 1160 265 1164 b 435 1042 331 1115 386 1076 b 443 988 450 1029 456 1006 b 390 978 432 972 407 969 z m 179 1 b 142 36 158 1 142 14 b 179 71 142 56 158 71 l 271 71 l 274 801 l 179 801 b 142 838 158 801 142 817 b 179 871 142 858 158 871 l 444 871 b 483 838 465 871 483 858 b 444 801 483 817 465 801 l 351 801 l 350 71 l 443 71 b 483 36 464 71 483 56 b 443 1 483 14 464 1 z "},"Í":{"ha":625,"x_min":0,"x_max":0,"o":"m 379 1136 b 432 1124 399 1146 422 1139 l 432 1122 b 418 1071 444 1104 438 1081 b 258 976 365 1039 311 1008 b 206 990 242 969 217 974 b 218 1044 194 1010 201 1035 l 218 1043 z m 179 1 b 142 36 158 1 142 14 b 179 71 142 56 158 71 l 271 71 l 274 801 l 179 801 b 142 838 158 801 142 817 b 179 871 142 858 158 871 l 444 871 b 483 838 465 871 483 858 b 444 801 483 817 465 801 l 351 801 l 350 71 l 443 71 b 483 36 464 71 483 56 b 443 1 483 14 464 1 z "},"Î":{"ha":625,"x_min":0,"x_max":0,"o":"m 197 993 b 146 1015 181 982 158 992 b 163 1063 138 1031 146 1051 l 306 1154 b 349 1156 315 1164 333 1164 b 488 1049 393 1119 442 1083 b 496 992 504 1035 508 1011 b 449 983 486 978 463 976 l 328 1076 z m 188 1 b 149 36 167 1 149 14 b 188 71 149 56 167 71 l 279 71 l 282 801 l 188 801 b 149 838 167 801 149 817 b 188 871 149 858 167 871 l 453 871 b 490 838 474 871 490 858 b 453 801 490 817 474 801 l 360 801 l 358 71 l 451 71 b 490 36 472 71 490 56 b 451 1 490 14 472 1 z "},"Ï":{"ha":625,"x_min":0,"x_max":0,"o":"m 268 1044 b 208 982 268 1011 240 982 b 146 1044 174 982 146 1011 b 208 1108 146 1079 174 1108 b 268 1044 240 1108 268 1079 z m 511 1044 b 449 982 511 1011 483 982 b 388 1044 415 982 388 1011 b 449 1108 388 1079 415 1108 b 511 1044 483 1108 511 1079 z m 186 1 b 147 36 165 1 147 14 b 186 71 147 56 165 71 l 278 71 l 281 801 l 186 801 b 147 838 165 801 147 817 b 186 871 147 858 165 871 l 451 871 b 489 838 472 871 489 858 b 451 801 489 817 472 801 l 358 801 l 357 71 l 449 71 b 489 36 471 71 489 56 b 449 1 489 14 471 1 z "},"Ñ":{"ha":625,"x_min":0,"x_max":0,"o":"m 185 1050 b 243 1088 210 1071 229 1085 b 300 1067 249 1088 267 1081 l 299 1067 b 371 1042 329 1050 356 1042 b 415 1067 388 1042 401 1051 b 451 1088 428 1081 442 1088 b 479 1068 467 1088 479 1079 b 449 1018 479 1057 469 1040 b 392 978 424 990 404 978 b 294 1017 381 978 350 990 b 261 1026 279 1022 268 1025 b 203 990 249 1028 229 1015 l 203 992 b 176 981 194 983 185 981 b 147 1001 161 981 147 990 b 185 1050 147 1010 163 1026 z m 453 1 b 425 24 439 3 429 13 l 215 592 l 190 588 l 188 38 b 151 1 188 17 171 1 b 117 38 132 1 117 17 l 118 828 b 146 864 118 843 132 858 l 161 865 b 200 842 176 868 194 860 l 200 843 l 408 278 l 435 282 l 432 828 b 468 864 432 847 449 864 b 504 828 489 864 504 847 l 507 35 b 494 8 507 24 501 14 b 471 -1 488 1 479 -1 b 465 0 469 -1 468 -1 z "},"×":{"ha":625,"x_min":0,"x_max":0,"o":"m 143 3 b 128 63 122 15 115 43 l 268 306 b 138 540 226 382 179 465 b 153 597 128 563 133 586 b 207 582 172 611 197 601 l 207 583 l 314 367 b 424 581 346 429 393 518 l 424 579 b 479 594 435 599 460 607 b 493 535 497 583 504 554 l 360 304 l 497 60 b 483 3 508 40 501 14 b 463 -3 475 -1 468 -3 b 426 18 449 -3 435 4 l 426 17 l 314 247 b 197 18 279 181 231 86 l 199 18 b 163 -1 192 7 176 -1 b 143 4 157 -1 149 1 z "},"Ø":{"ha":625,"x_min":0,"x_max":0,"o":"m 308 800 b 208 707 264 797 238 775 b 172 442 183 644 172 550 l 172 428 b 176 321 172 403 175 342 b 310 501 213 369 272 451 b 426 661 350 556 393 614 l 419 682 l 421 681 b 413 701 419 685 415 696 b 308 800 385 788 344 799 z m 315 71 b 413 157 354 71 382 90 b 454 417 440 215 454 308 l 454 426 b 449 557 454 456 450 531 b 382 464 436 540 400 486 l 382 465 b 357 429 376 457 367 444 b 283 329 329 392 306 358 b 190 200 253 285 214 233 b 308 71 226 99 275 75 z m 608 814 b 610 811 608 813 610 811 b 611 801 610 807 611 804 b 607 778 613 794 610 783 l 604 775 b 600 768 601 771 599 767 b 597 764 599 767 599 765 b 574 732 592 757 582 744 b 525 667 554 707 539 685 b 510 644 521 661 514 650 b 533 422 525 569 531 496 l 533 417 b 485 121 533 301 519 200 b 315 -12 456 47 397 -12 l 307 -12 b 135 128 233 -6 171 40 b 93 72 118 106 93 72 b 39 64 79 56 57 50 b 31 118 22 78 18 101 b 108 225 31 118 64 164 b 90 425 94 285 90 351 l 90 438 b 135 738 90 556 104 658 b 304 881 163 814 221 876 b 319 881 308 882 318 881 b 482 739 413 878 454 815 b 521 789 492 750 514 781 b 543 819 529 800 540 815 b 557 832 546 826 550 831 b 582 833 567 835 574 835 b 607 817 594 829 603 825 z "},"Œ":{"ha":625,"x_min":0,"x_max":0,"o":"m 290 800 b 190 707 246 797 221 775 b 153 408 167 644 153 518 l 153 394 b 288 71 157 107 232 82 l 319 68 l 319 799 z m 392 419 l 392 61 b 563 60 442 61 511 60 b 599 19 581 58 599 43 b 564 -17 597 0 582 -17 l 297 -14 b 290 -12 294 -14 292 -14 l 292 -12 b 72 392 142 -1 72 126 l 72 404 b 118 738 72 524 86 660 b 286 881 144 814 203 876 b 292 882 290 882 290 882 l 313 878 l 314 883 l 321 883 l 314 883 l 321 904 b 307 910 318 906 310 908 b 321 883 367 896 393 885 l 563 883 b 596 842 581 883 596 865 b 561 806 596 822 581 806 l 392 807 l 392 496 l 528 496 b 563 456 546 493 563 476 b 526 419 563 436 546 419 z "},"œ":{"ha":625,"x_min":0,"x_max":0,"o":"m 546 350 b 526 467 544 382 540 438 l 521 478 b 451 529 510 506 496 528 b 365 442 408 528 381 494 b 360 393 363 431 361 410 b 356 350 360 382 360 372 z m 190 529 b 117 460 139 524 131 503 l 111 447 b 96 292 99 399 96 333 l 96 286 b 117 146 93 251 101 192 b 121 133 118 140 119 135 b 190 69 139 93 149 71 b 278 150 239 72 260 97 l 278 149 b 296 264 293 185 294 228 l 296 313 b 279 454 296 353 296 408 z m 439 -17 b 322 90 390 -11 350 35 b 189 -12 292 33 246 -11 b 53 107 118 -12 71 49 b 24 286 29 172 24 239 l 24 307 b 47 476 25 349 25 411 b 189 614 64 543 114 614 l 196 614 b 325 508 251 615 296 565 b 443 604 356 557 394 600 b 583 500 517 606 563 553 b 606 353 604 447 606 389 b 604 319 606 336 604 325 b 575 283 603 299 592 283 l 356 283 b 354 260 356 281 354 263 l 354 253 b 356 229 354 246 356 236 b 367 151 357 203 360 176 b 440 63 383 99 408 68 b 535 126 497 53 518 94 b 542 140 535 126 538 133 b 578 156 550 157 565 161 b 594 104 594 143 601 121 b 454 -17 590 92 550 -17 z "},"ù":{"ha":625,"x_min":0,"x_max":0,"o":"m 239 832 b 228 886 219 844 215 869 b 282 894 242 906 265 910 b 435 788 331 861 386 822 b 443 733 450 775 456 750 b 390 724 432 718 407 715 z m 279 -7 b 135 158 135 10 135 157 l 131 567 b 171 606 131 588 149 606 b 211 567 193 606 211 589 l 211 168 b 299 65 211 114 249 71 l 307 65 b 413 115 374 71 403 108 l 410 568 b 450 610 410 590 428 610 b 492 568 472 610 490 590 l 493 42 b 453 0 493 18 474 0 b 411 31 439 0 422 13 b 293 -8 375 7 360 -7 b 281 -7 290 -8 286 -8 z "},"ú":{"ha":625,"x_min":0,"x_max":0,"o":"m 403 890 b 456 878 421 899 446 893 l 456 876 b 442 825 467 858 460 835 b 281 731 389 793 333 763 b 228 744 264 724 240 728 b 242 799 217 764 224 789 l 242 797 z m 279 -7 b 135 158 135 10 135 157 l 131 567 b 171 606 131 588 149 606 b 211 567 193 606 211 589 l 211 168 b 299 65 211 114 249 71 l 307 65 b 413 115 374 71 403 108 l 410 568 b 450 610 410 590 428 610 b 492 568 472 610 490 590 l 493 42 b 453 0 493 18 474 0 b 411 31 439 0 422 13 b 293 -8 375 7 360 -7 b 281 -7 290 -8 286 -8 z "},"û":{"ha":625,"x_min":0,"x_max":0,"o":"m 179 736 b 128 758 163 725 140 735 b 144 806 119 774 128 793 l 288 896 b 329 897 297 907 315 907 b 469 790 375 863 424 826 b 476 735 486 778 490 753 b 429 726 468 721 444 719 l 310 819 z m 279 -7 b 135 158 135 10 135 157 l 131 567 b 171 606 131 588 149 606 b 211 567 193 606 211 589 l 211 168 b 299 65 211 114 249 71 l 307 65 b 413 115 374 71 403 108 l 410 568 b 450 610 410 590 428 610 b 492 568 472 610 490 590 l 493 42 b 453 0 493 18 474 0 b 411 31 439 0 422 13 b 293 -8 375 7 360 -7 b 281 -7 290 -8 286 -8 z "},"ü":{"ha":625,"x_min":0,"x_max":0,"o":"m 244 779 b 183 717 244 744 217 717 b 122 779 150 717 122 744 b 183 842 122 814 150 842 b 244 779 217 842 244 814 z m 488 779 b 425 717 488 744 460 717 b 364 779 392 717 364 744 b 425 842 364 814 392 842 b 488 779 460 842 488 814 z m 279 -7 b 135 158 135 10 135 157 l 131 567 b 171 606 131 588 149 606 b 211 567 193 606 211 589 l 211 168 b 299 65 211 114 249 71 l 307 65 b 413 115 374 71 403 108 l 410 568 b 450 610 410 590 428 610 b 492 568 472 610 490 590 l 493 42 b 453 0 493 18 474 0 b 411 31 439 0 422 13 b 293 -8 375 7 360 -7 b 281 -7 290 -8 286 -8 z "},"À":{"ha":625,"x_min":0,"x_max":0,"o":"m 238 1086 b 228 1140 219 1100 215 1124 b 282 1150 242 1160 265 1164 b 433 1042 331 1115 385 1076 b 443 988 450 1029 456 1006 b 390 978 432 972 407 969 z m 221 283 l 400 283 l 308 781 z m 251 844 b 290 878 257 864 272 879 l 326 878 b 363 843 344 876 360 863 b 526 43 414 590 475 296 b 497 -1 529 24 517 1 b 490 -3 494 -3 493 -3 b 453 28 471 -3 456 8 l 415 207 l 206 207 l 172 26 b 126 -1 169 6 149 -6 b 100 43 107 1 94 21 z "},"Á":{"ha":625,"x_min":0,"x_max":0,"o":"m 357 1136 b 414 1115 375 1147 403 1138 b 396 1071 422 1101 414 1081 b 235 976 343 1039 288 1008 b 182 990 218 969 194 974 b 196 1044 171 1010 178 1035 l 196 1043 z m 221 283 l 400 283 l 308 781 z m 251 844 b 290 878 257 864 272 879 l 326 878 b 363 843 344 876 360 863 b 526 43 414 590 475 296 b 497 -1 529 24 517 1 b 490 -3 494 -3 493 -3 b 453 28 471 -3 456 8 l 415 207 l 206 207 l 172 26 b 126 -1 169 6 149 -6 b 100 43 107 1 94 21 z "},"Â":{"ha":625,"x_min":0,"x_max":0,"o":"m 179 932 b 128 954 163 921 139 931 b 144 1001 119 969 128 989 l 286 1092 b 329 1093 297 1103 315 1103 b 469 986 375 1058 424 1022 b 476 931 486 974 490 950 b 429 922 468 917 444 915 l 310 1015 z m 221 283 l 400 283 l 308 781 z m 251 844 b 290 878 257 864 272 879 l 326 878 b 363 843 344 876 360 863 b 526 43 414 590 475 296 b 497 -1 529 24 517 1 b 490 -3 494 -3 493 -3 b 453 28 471 -3 456 8 l 415 207 l 206 207 l 172 26 b 126 -1 169 6 149 -6 b 100 43 107 1 94 21 z "},"Ã":{"ha":625,"x_min":0,"x_max":0,"o":"m 185 1050 b 243 1088 210 1071 229 1085 b 300 1067 249 1088 267 1081 l 299 1067 b 371 1042 329 1050 356 1042 b 415 1067 388 1042 401 1051 b 451 1088 428 1081 442 1088 b 479 1068 467 1088 479 1079 b 449 1018 479 1057 469 1040 b 392 978 424 990 404 978 b 294 1017 381 978 350 990 b 261 1026 279 1022 268 1025 b 203 990 249 1028 229 1015 l 203 992 b 176 981 194 983 185 981 b 147 1001 161 981 147 990 b 185 1050 147 1010 163 1026 z m 221 283 l 400 283 l 308 781 z m 251 844 b 290 878 257 864 272 879 l 326 878 b 363 843 344 876 360 863 b 526 43 414 590 475 296 b 497 -1 529 24 517 1 b 490 -3 494 -3 493 -3 b 453 28 471 -3 456 8 l 415 207 l 206 207 l 172 26 b 126 -1 169 6 149 -6 b 100 43 107 1 94 21 z "},"Ä":{"ha":625,"x_min":0,"x_max":0,"o":"m 249 1018 b 188 956 249 983 221 956 b 126 1018 154 956 126 983 b 188 1081 126 1053 154 1081 b 249 1018 221 1081 249 1053 z m 492 1018 b 429 956 492 983 464 956 b 368 1018 396 956 368 983 b 429 1081 368 1053 396 1081 b 492 1018 464 1081 492 1053 z m 221 283 l 400 283 l 308 781 z m 251 844 b 290 878 257 864 272 879 l 326 878 b 363 843 344 876 360 863 b 526 43 414 590 475 296 b 497 -1 529 24 517 1 b 490 -3 494 -3 493 -3 b 453 28 471 -3 456 8 l 415 207 l 206 207 l 172 26 b 126 -1 169 6 149 -6 b 100 43 107 1 94 21 z "},"Å":{"ha":625,"x_min":0,"x_max":0,"o":"m 361 1018 b 300 956 361 983 333 956 b 238 1018 265 956 238 983 b 300 1081 238 1053 265 1081 b 361 1018 333 1081 361 1053 z m 221 283 l 400 283 l 308 781 z m 251 844 b 290 878 257 864 272 879 l 326 878 b 363 843 344 876 360 863 b 526 43 414 590 475 296 b 497 -1 529 24 517 1 b 490 -3 494 -3 493 -3 b 453 28 471 -3 456 8 l 415 207 l 206 207 l 172 26 b 126 -1 169 6 149 -6 b 100 43 107 1 94 21 z "},"Æ":{"ha":625,"x_min":0,"x_max":0,"o":"m 143 283 l 321 283 b 311 488 318 346 314 425 l 301 686 l 297 750 z m 386 392 l 401 78 b 592 76 460 78 533 76 b 632 38 611 72 631 58 b 596 0 631 15 615 0 l 382 0 l 374 -1 b 367 -3 371 -3 369 -3 b 335 26 350 -3 338 8 l 335 38 l 325 207 l 117 207 l 56 29 b 7 -1 49 7 26 -6 b -14 40 -12 1 -21 21 b 254 843 72 300 168 583 b 304 878 263 860 285 879 b 326 883 311 881 318 883 l 546 883 b 585 840 565 883 585 865 b 551 807 588 822 569 807 l 363 808 b 374 590 365 740 371 657 l 381 468 l 500 468 b 539 426 521 467 538 449 b 504 392 542 407 525 392 z "},"Ò":{"ha":625,"x_min":0,"x_max":0,"o":"m 215 1086 b 206 1140 197 1100 193 1124 b 260 1150 218 1160 243 1164 b 411 1042 308 1115 363 1076 b 419 988 426 1029 432 1006 b 367 978 410 972 383 969 z m 314 800 b 208 707 269 799 238 775 b 172 442 183 644 172 550 l 172 428 b 308 71 176 142 249 71 l 315 71 b 413 157 354 71 382 90 b 454 417 440 215 454 308 l 454 426 b 418 701 454 533 446 635 b 314 800 392 771 360 801 z m 307 -12 b 90 425 164 1 90 161 l 90 438 b 135 738 90 556 104 658 b 304 881 163 814 221 876 b 311 881 308 882 310 881 b 535 422 488 886 528 646 l 535 417 b 486 121 535 301 519 200 b 315 -12 456 47 397 -12 z "},"Ó":{"ha":625,"x_min":0,"x_max":0,"o":"m 365 1136 b 418 1124 383 1146 408 1139 l 418 1122 b 404 1071 429 1104 422 1081 b 244 976 351 1039 297 1008 b 192 990 226 969 203 974 b 204 1044 179 1010 186 1035 l 204 1043 z m 314 800 b 208 707 269 799 238 775 b 172 442 183 644 172 550 l 172 428 b 308 71 176 142 249 71 l 315 71 b 413 157 354 71 382 90 b 454 417 440 215 454 308 l 454 426 b 418 701 454 533 446 635 b 314 800 392 771 360 801 z m 307 -12 b 90 425 164 1 90 161 l 90 438 b 135 738 90 556 104 658 b 304 881 163 814 221 876 b 311 881 308 882 310 881 b 535 422 488 886 528 646 l 535 417 b 486 121 535 301 519 200 b 315 -12 456 47 397 -12 z "},"Ô":{"ha":625,"x_min":0,"x_max":0,"o":"m 186 950 b 135 971 169 938 147 947 b 151 1018 126 986 135 1007 l 294 1110 b 336 1111 304 1119 322 1119 b 476 1004 382 1075 431 1039 b 485 947 493 990 497 967 b 438 939 475 933 451 932 l 317 1032 z m 314 800 b 208 707 269 799 238 775 b 172 442 183 644 172 550 l 172 428 b 308 71 176 142 249 71 l 315 71 b 413 157 354 71 382 90 b 454 417 440 215 454 308 l 454 426 b 418 701 454 533 446 635 b 314 800 392 771 360 801 z m 307 -12 b 90 425 164 1 90 161 l 90 438 b 135 738 90 556 104 658 b 304 881 163 814 221 876 b 311 881 308 882 310 881 b 535 422 488 886 528 646 l 535 417 b 486 121 535 301 519 200 b 315 -12 456 47 397 -12 z "},"Õ":{"ha":625,"x_min":0,"x_max":0,"o":"m 185 1050 b 243 1088 210 1071 229 1085 b 300 1067 249 1088 267 1081 l 299 1067 b 371 1042 329 1050 356 1042 b 415 1067 388 1042 401 1051 b 451 1088 428 1081 442 1088 b 479 1068 467 1088 479 1079 b 449 1018 479 1057 469 1040 b 392 978 424 990 404 978 b 294 1017 381 978 350 990 b 261 1026 279 1022 268 1025 b 203 990 249 1028 229 1015 l 203 992 b 176 981 194 983 185 981 b 147 1001 161 981 147 990 b 185 1050 147 1010 163 1026 z m 314 800 b 208 707 269 799 238 775 b 172 442 183 644 172 550 l 172 428 b 308 71 176 142 249 71 l 315 71 b 413 157 354 71 382 90 b 454 417 440 215 454 308 l 454 426 b 418 701 454 533 446 635 b 314 800 392 771 360 801 z m 307 -12 b 90 425 164 1 90 161 l 90 438 b 135 738 90 556 104 658 b 304 881 163 814 221 876 b 311 881 308 882 310 881 b 535 422 488 886 528 646 l 535 417 b 486 121 535 301 519 200 b 315 -12 456 47 397 -12 z "},"Ö":{"ha":625,"x_min":0,"x_max":0,"o":"m 249 1018 b 188 956 249 983 221 956 b 126 1018 154 956 126 983 b 188 1081 126 1053 154 1081 b 249 1018 221 1081 249 1053 z m 492 1018 b 429 956 492 983 464 956 b 368 1018 396 956 368 983 b 429 1081 368 1053 396 1081 b 492 1018 464 1081 492 1053 z m 314 800 b 208 707 269 799 238 775 b 172 442 183 644 172 550 l 172 428 b 308 71 176 142 249 71 l 315 71 b 413 157 354 71 382 90 b 454 417 440 215 454 308 l 454 426 b 418 701 454 533 446 635 b 314 800 392 771 360 801 z m 307 -12 b 90 425 164 1 90 161 l 90 438 b 135 738 90 556 104 658 b 304 881 163 814 221 876 b 311 881 308 882 310 881 b 535 422 488 886 528 646 l 535 417 b 486 121 535 301 519 200 b 315 -12 456 47 397 -12 z "},"Ù":{"ha":625,"x_min":0,"x_max":0,"o":"m 232 1086 b 222 1140 214 1100 210 1124 b 276 1150 235 1160 260 1164 b 428 1042 325 1115 379 1076 b 438 988 444 1029 450 1006 b 383 978 426 972 401 969 z m 307 -11 b 131 201 158 -3 131 101 l 131 831 b 171 872 131 854 150 872 b 211 831 194 872 211 854 l 211 190 b 308 64 214 150 219 64 b 410 167 400 64 407 126 b 411 179 410 172 411 176 l 411 831 b 451 872 411 854 429 872 b 494 831 474 872 494 854 l 494 189 b 493 179 494 186 493 183 b 319 -11 493 96 450 -15 z "},"Ú":{"ha":625,"x_min":0,"x_max":0,"o":"m 390 1136 b 443 1124 408 1146 432 1139 l 443 1122 b 428 1071 454 1104 447 1081 b 268 976 375 1039 321 1008 b 215 990 251 969 226 974 b 228 1044 204 1010 211 1035 l 228 1043 z m 307 -11 b 131 201 158 -3 131 101 l 131 831 b 171 872 131 854 150 872 b 211 831 194 872 211 854 l 211 190 b 308 64 214 150 219 64 b 410 167 400 64 407 126 b 411 179 410 172 411 176 l 411 831 b 451 872 411 854 429 872 b 494 831 474 872 494 854 l 494 189 b 493 179 494 186 493 183 b 319 -11 493 96 450 -15 z "},"Û":{"ha":625,"x_min":0,"x_max":0,"o":"m 199 993 b 147 1015 181 982 158 992 b 163 1063 138 1031 147 1051 l 306 1154 b 349 1156 315 1164 333 1164 b 489 1049 394 1119 443 1083 b 496 992 504 1035 508 1011 b 449 983 486 978 463 976 l 328 1076 z m 307 -11 b 131 201 158 -3 131 101 l 131 831 b 171 872 131 854 150 872 b 211 831 194 872 211 854 l 211 190 b 308 64 214 150 219 64 b 410 167 400 64 407 126 b 411 179 410 172 411 176 l 411 831 b 451 872 411 854 429 872 b 494 831 474 872 494 854 l 494 189 b 493 179 494 186 493 183 b 319 -11 493 96 450 -15 z "},"Ü":{"ha":625,"x_min":0,"x_max":0,"o":"m 251 1049 b 192 985 251 1014 224 985 b 129 1049 157 985 129 1014 b 192 1111 129 1082 157 1111 b 251 1049 224 1111 251 1082 z m 494 1049 b 432 985 494 1014 467 985 b 371 1049 399 985 371 1014 b 432 1111 371 1082 399 1111 b 494 1049 467 1111 494 1082 z m 307 -11 b 131 201 158 -3 131 101 l 131 831 b 171 872 131 854 150 872 b 211 831 194 872 211 854 l 211 190 b 308 64 214 150 219 64 b 410 167 400 64 407 126 b 411 179 410 172 411 176 l 411 831 b 451 872 411 854 429 872 b 494 831 474 872 494 854 l 494 189 b 493 179 494 186 493 183 b 319 -11 493 96 450 -15 z "},"à":{"ha":625,"x_min":0,"x_max":0,"o":"m 403 890 b 460 869 421 901 449 892 b 442 825 468 856 460 835 b 281 731 389 793 333 763 b 228 744 264 724 240 728 b 242 799 217 764 224 789 l 242 797 z m 321 279 b 207 164 243 265 210 232 b 292 67 208 81 250 72 l 303 67 b 317 68 307 67 313 68 b 392 97 346 71 369 75 b 417 129 406 111 411 119 l 417 290 b 321 279 353 289 356 285 z m 185 29 b 128 160 151 56 128 101 l 128 167 b 365 354 135 335 294 344 b 414 364 382 357 388 354 b 415 381 414 371 414 378 b 415 479 415 472 415 476 b 324 536 414 501 410 533 b 247 510 285 536 263 524 b 225 486 232 500 225 486 b 172 472 215 468 192 461 b 157 525 154 482 147 506 b 324 614 160 531 210 613 b 467 554 390 614 442 589 b 494 467 490 521 494 485 l 496 21 b 457 -11 497 0 478 -10 b 415 31 440 -11 422 3 b 313 -8 382 13 347 -3 l 294 -8 b 185 29 261 -8 221 0 z "},"ø":{"ha":625,"x_min":0,"x_max":0,"o":"m 314 72 b 413 150 371 78 392 101 b 438 294 433 197 438 257 l 438 304 b 438 349 438 318 439 335 l 435 396 b 372 322 424 382 385 336 b 274 204 344 288 313 249 b 253 182 269 200 267 196 l 215 139 b 314 72 239 97 271 69 z m 314 531 b 210 449 250 525 232 497 b 188 292 190 394 188 332 l 188 288 b 192 210 186 275 189 244 b 300 325 219 238 271 292 b 413 456 336 368 379 418 b 314 531 390 519 349 533 z m 574 569 b 561 542 572 558 569 550 b 528 501 538 514 532 507 l 496 468 b 496 465 496 468 499 468 b 517 304 515 397 517 340 l 517 293 b 489 118 517 251 514 181 b 311 -8 467 57 408 -7 b 160 75 249 -8 197 29 l 114 21 b 69 11 100 6 78 0 b 74 64 57 24 58 49 b 131 132 74 64 99 93 b 107 286 111 190 107 247 l 107 306 b 132 474 108 349 110 413 b 313 607 154 539 215 607 l 318 607 b 468 519 382 610 440 572 b 508 569 478 532 500 558 b 519 582 511 572 517 578 b 539 596 525 590 531 594 b 560 596 546 599 551 601 b 572 583 565 596 571 590 z "},"á":{"ha":625,"x_min":0,"x_max":0,"o":"m 403 890 b 460 869 421 901 449 892 b 442 825 468 856 460 835 b 281 731 389 793 333 763 b 228 744 264 724 240 728 b 242 799 217 764 224 789 l 242 797 z m 321 279 b 207 164 243 265 210 232 b 292 67 208 81 250 72 l 303 67 b 317 68 307 67 313 68 b 392 97 346 71 369 75 b 417 129 406 111 411 119 l 417 290 b 321 279 353 289 356 285 z m 185 29 b 128 160 151 56 128 101 l 128 167 b 365 354 135 335 294 344 b 414 364 382 357 388 354 b 415 381 414 371 414 378 b 415 479 415 472 415 476 b 324 536 414 501 410 533 b 247 510 285 536 263 524 b 225 486 232 500 225 486 b 172 472 215 468 192 461 b 157 525 154 482 147 506 b 324 614 160 531 210 613 b 467 554 390 614 442 589 b 494 467 490 521 494 485 l 496 21 b 457 -11 497 0 478 -10 b 415 31 440 -11 422 3 b 313 -8 382 13 347 -3 l 294 -8 b 185 29 261 -8 221 0 z "},"â":{"ha":625,"x_min":0,"x_max":0,"o":"m 211 726 b 160 747 193 715 171 725 b 175 794 150 764 160 783 l 318 886 b 361 888 328 896 346 896 b 501 781 407 853 456 817 b 508 725 517 768 521 743 b 461 717 500 711 475 710 l 340 810 z m 321 279 b 207 164 243 265 210 232 b 292 67 208 81 250 72 l 303 67 b 317 68 307 67 313 68 b 392 97 346 71 369 75 b 417 129 406 111 411 119 l 417 290 b 321 279 353 289 356 285 z m 185 29 b 128 160 151 56 128 101 l 128 167 b 365 354 135 335 294 344 b 414 364 382 357 388 354 b 415 381 414 371 414 378 b 415 479 415 472 415 476 b 324 536 414 501 410 533 b 247 510 285 536 263 524 b 225 486 232 500 225 486 b 172 472 215 468 192 461 b 157 525 154 482 147 506 b 324 614 160 531 210 613 b 467 554 390 614 442 589 b 494 467 490 521 494 485 l 496 21 b 457 -11 497 0 478 -10 b 415 31 440 -11 422 3 b 313 -8 382 13 347 -3 l 294 -8 b 185 29 261 -8 221 0 z "},"ã":{"ha":625,"x_min":0,"x_max":0,"o":"m 244 853 b 300 831 251 850 268 843 l 299 831 b 371 807 329 814 356 807 b 415 831 388 807 401 815 b 451 853 428 844 442 853 b 479 832 467 853 479 843 b 449 782 479 821 469 806 b 392 742 424 756 404 742 b 294 781 381 742 350 756 b 261 790 279 786 268 789 b 203 756 249 792 229 779 l 203 757 b 176 744 194 747 185 744 b 147 765 161 744 147 756 b 185 814 147 774 163 790 b 244 853 211 836 231 850 z m 321 279 b 207 164 243 265 210 232 b 292 67 208 81 250 72 l 303 67 b 317 68 307 67 313 68 b 392 97 346 71 369 75 b 417 129 406 111 411 119 l 417 290 b 321 279 353 289 356 285 z m 185 29 b 128 160 151 56 128 101 l 128 167 b 365 354 135 335 294 344 b 414 364 382 357 388 354 b 415 381 414 371 414 378 b 415 479 415 472 415 476 b 324 536 414 501 410 533 b 247 510 285 536 263 524 b 225 486 232 500 225 486 b 172 472 215 468 192 461 b 157 525 154 482 147 506 b 324 614 160 531 210 613 b 467 554 390 614 442 589 b 494 467 490 521 494 485 l 496 21 b 457 -11 497 0 478 -10 b 415 31 440 -11 422 3 b 313 -8 382 13 347 -3 l 294 -8 b 185 29 261 -8 221 0 z "},"ä":{"ha":625,"x_min":0,"x_max":0,"o":"m 276 772 b 217 710 276 738 249 710 b 156 772 182 710 156 738 b 217 835 156 807 182 835 b 276 772 249 835 276 807 z m 519 772 b 458 710 519 738 492 710 b 396 772 424 710 396 738 b 458 835 396 807 424 835 b 519 772 492 835 519 807 z m 321 279 b 207 164 243 265 210 232 b 292 67 208 81 250 72 l 303 67 b 317 68 307 67 313 68 b 392 97 346 71 369 75 b 417 129 406 111 411 119 l 417 290 b 321 279 353 289 356 285 z m 185 29 b 128 160 151 56 128 101 l 128 167 b 365 354 135 335 294 344 b 414 364 382 357 388 354 b 415 381 414 371 414 378 b 415 479 415 472 415 476 b 324 536 414 501 410 533 b 247 510 285 536 263 524 b 225 486 232 500 225 486 b 172 472 215 468 192 461 b 157 525 154 482 147 506 b 324 614 160 531 210 613 b 467 554 390 614 442 589 b 494 467 490 521 494 485 l 496 21 b 457 -11 497 0 478 -10 b 415 31 440 -11 422 3 b 313 -8 382 13 347 -3 l 294 -8 b 185 29 261 -8 221 0 z "}}}
